<?xml version="1.0" encoding="utf-8"?>
<!-- Generator: Adobe Illustrator 16.0.0, SVG Export Plug-In . SVG Version: 6.00 Build 0)  -->
<!DOCTYPE svg PUBLIC "-//W3C//DTD SVG 1.1//EN" "http://www.w3.org/Graphics/SVG/1.1/DTD/svg11.dtd">
<svg version="1.1" id="Layer_1" xmlns="http://www.w3.org/2000/svg" xmlns:xlink="http://www.w3.org/1999/xlink" x="0px" y="0px"
	 width="220px" height="30px" viewBox="0 0 220 30" enable-background="new 0 0 220 30" xml:space="preserve">
<g>
	<g>
		<path fill="#3D3D3D" d="M0.283,0.459c0.063,9.57,0.864,19.121-0.167,28.667c-0.138,1.281,1.863,1.269,2,0
			C3.147,19.58,2.345,10.029,2.283,0.459C2.274-0.83,0.274-0.831,0.283,0.459L0.283,0.459z"/>
	</g>
</g>
<g>
	<g>
		<path fill="#3D3D3D" d="M1,2c3.247-0.097,6.153,0.969,9.376,0.568c5.542-0.689,10.425-0.401,15.942,0.092
			C32.023,3.17,37.768,1.817,43.5,2.167c5.235,0.319,10.428,0.05,15.667,0c1.289-0.012,1.29-2.012,0-2
			C48.822,0.265,38.557,0.456,28.227,0.708C23.3,0.828,18.803-0.3,13.819,0.159c-2.521,0.232-5.017,0.992-7.517,0.173
			C3.93-0.445,3.509-0.075,1,0C-0.287,0.039-0.291,2.039,1,2L1,2z"/>
	</g>
</g>
<g>
	<g>
		<path fill="#3D3D3D" d="M59.667,2.333c36.279,0,72.556,0.063,108.833,0c1.29-0.002,1.29-2.002,0-2
			c-36.277,0.063-72.555,0-108.833,0C58.377,0.333,58.377,2.333,59.667,2.333L59.667,2.333z"/>
	</g>
</g>
<g>
	<g>
		<path fill="#3D3D3D" d="M168.667,2.333c10.679-0.411,21.582,0.46,32.333,0.5c1.29,0.005,1.289-1.995,0-2
			c-10.781-0.04-21.62-0.912-32.333-0.5C167.382,0.383,167.377,2.383,168.667,2.333L168.667,2.333z"/>
	</g>
</g>
<g>
	<g>
		<path fill="#3D3D3D" d="M201.567,2.464c3.005,0.587,6.05,0.086,9.081,0.013c3.268-0.079,6.378,0.361,9.617-0.347
			c1.26-0.275,0.726-2.203-0.531-1.929c-3.028,0.662-6.024,0.356-9.086,0.275c-2.859-0.076-5.702,0.614-8.55,0.058
			C200.839,0.29,200.302,2.217,201.567,2.464L201.567,2.464z"/>
	</g>
</g>
<g>
	<g>
		<path fill="#3D3D3D" d="M217.5,1.667c0.148,4.699,1.109,9.286,0.833,14C218.071,20.13,217.741,24.526,218,29
			c0.074,1.282,2.074,1.289,2,0c-0.259-4.461-0.002-8.884,0.333-13.333c0.354-4.702-0.686-9.312-0.833-14
			C219.459,0.38,217.459,0.376,217.5,1.667L217.5,1.667z"/>
	</g>
</g>
<g>
	<g>
		<path fill="#3D3D3D" d="M218.547,27.703c-20.023,0.152-40.011,0.832-60.047,0.89c-1.289,0.004-1.29,2.004,0,2
			c20.036-0.058,40.023-0.737,60.047-0.89C219.836,29.693,219.837,27.693,218.547,27.703L218.547,27.703z"/>
	</g>
</g>
<g>
	<g>
		<path fill="#3D3D3D" d="M158.833,28.167C146.719,28.131,134.611,28.09,122.5,28c-1.29-0.01-1.289,1.99,0,2
			c12.111,0.09,24.219,0.131,36.333,0.167C160.123,30.171,160.122,28.171,158.833,28.167L158.833,28.167z"/>
	</g>
</g>
<g>
	<g>
		<path fill="#3D3D3D" d="M122.833,28.167c-18.341-0.048-36.792-1.404-55.083,0.009c-1.277,0.099-1.287,2.1,0,2
			c18.292-1.413,36.742-0.057,55.083-0.009C124.123,30.17,124.123,28.17,122.833,28.167L122.833,28.167z"/>
	</g>
</g>
<g>
	<g>
		<path fill="#3D3D3D" d="M71.5,27.667c-11.133,0.771-22.262-0.176-33.411,0.037C25.82,27.938,13.401,27.331,1.167,28
			c-1.283,0.07-1.289,2.07,0,2c11.638-0.637,23.433-0.015,35.103-0.26c11.752-0.246,23.502,0.739,35.231-0.073
			C72.779,29.578,72.788,27.578,71.5,27.667L71.5,27.667z"/>
	</g>
</g>
</svg>
