<?xml version="1.0" encoding="utf-8"?>
<!-- Generator: Adobe Illustrator 16.0.0, SVG Export Plug-In . SVG Version: 6.00 Build 0)  -->
<!DOCTYPE svg PUBLIC "-//W3C//DTD SVG 1.1//EN" "http://www.w3.org/Graphics/SVG/1.1/DTD/svg11.dtd">
<svg version="1.1" xmlns="http://www.w3.org/2000/svg" xmlns:xlink="http://www.w3.org/1999/xlink" x="0px" y="0px" width="35px"
	 height="35px" viewBox="0 0 35 35" enable-background="new 0 0 35 35" xml:space="preserve">
<g id="Layer_1" display="none">
	<g display="inline">
		<g>
			<path d="M17.248,6.468c-3.327,0.062-6.587,0.835-9.04,3.197c-2.436,2.346-2.978,6.53-2.753,9.717
				c0.241,3.417,1.976,5.042,4.852,6.5c1.283,0.65,2.059,1.528,2.355,2.978c0.147,0.722,0.496,1.234,1.05,1.696
				c0.894,0.745,2.503,0.481,3.536,0.344c0.629-0.084,0.638-1.085,0-1c-1.397,0.187-3.062,0.531-3.622-1.307
				c-0.327-1.073-0.432-1.725-1.249-2.532c-2.182-2.156-4.76-1.905-5.713-5.421c-0.823-3.034-0.037-6.636,1.495-9.306
				c1.744-3.04,5.911-3.806,9.089-3.865C17.892,7.456,17.893,6.456,17.248,6.468L17.248,6.468z"/>
		</g>
	</g>
	<g display="inline">
		<g>
			<path fill="#FCFAFC" d="M12.605,12.272c-1.34-0.004-3.397,0.08-3.541,1.856c-0.133,1.654,1.595,2.066,2.9,2.245
				c1.45,0.199,3.23,0.139,3.745-1.481c0.491-1.547-1.382-2.338-2.537-2.602c-0.628-0.144-0.894,0.82-0.266,0.964
				c0.67,0.154,1.971,0.44,1.838,1.372c-0.146,1.023-1.7,0.829-2.422,0.782c-0.701-0.045-1.583-0.164-2.123-0.648
				c-0.711-0.638,0.441-1.31,0.934-1.423c0.468-0.108,0.993-0.065,1.471-0.064C13.25,13.274,13.25,12.274,12.605,12.272
				L12.605,12.272z"/>
		</g>
	</g>
	<g display="inline">
		<g>
			<path d="M14.88,26.425c-0.183,1.036,0.101,2,0.127,3.032c0.017,0.644,1.017,0.646,1,0c-0.024-0.924-0.326-1.843-0.164-2.767
				C15.955,26.061,14.992,25.79,14.88,26.425L14.88,26.425z"/>
		</g>
	</g>
	<g display="inline">
		<g>
			<path d="M17.038,26.267c0,1.232,0,2.466,0,3.698c0,0.645,1,0.645,1,0c0-1.232,0-2.466,0-3.698
				C18.038,25.622,17.038,25.622,17.038,26.267L17.038,26.267z"/>
		</g>
	</g>
	<g display="inline">
		<g>
			<path d="M17.771,7.468c2.902,0.051,5.79,0.644,8.072,2.54c2.554,2.123,3.063,6.293,2.847,9.374
				c-0.147,2.081-1.012,3.792-2.824,4.857c-0.864,0.508-1.836,0.831-2.632,1.455c-0.838,0.657-1.28,1.22-1.582,2.237
				c-0.646,2.179-1.84,2.223-3.756,1.968c-0.638-0.085-0.629,0.916,0,1c1.098,0.146,2.422,0.327,3.434-0.266
				c0.441-0.258,0.635-0.615,0.91-1.029c0.105-0.239,0.187-0.487,0.241-0.745c0.364-1.196,0.771-2.001,1.85-2.696
				c1.376-0.887,2.819-1.325,3.934-2.585c0.984-1.113,1.241-2.783,1.426-4.196c0.429-3.284-0.531-7.11-2.687-9.635
				c-2.179-2.553-6.071-3.223-9.232-3.278C17.125,6.457,17.126,7.457,17.771,7.468L17.771,7.468z"/>
		</g>
	</g>
	<g display="inline">
		<g>
			<path fill="#FCFAFC" d="M22.538,13.272c0.9-0.002,2.459-0.149,2.56,1.099c0.063,0.789-1.47,0.934-1.985,1.011
				c-0.755,0.113-1.896,0.212-2.507-0.32c-1.108-0.963,1.042-1.673,1.631-1.808c0.629-0.144,0.362-1.107-0.266-0.964
				c-1.129,0.258-2.779,0.909-2.571,2.359c0.262,1.834,2.182,1.847,3.646,1.742c1.3-0.093,2.899-0.522,3.052-2.021
				c0.198-1.938-2.259-2.102-3.56-2.099C21.894,12.274,21.894,13.274,22.538,13.272L22.538,13.272z"/>
		</g>
	</g>
	<g display="inline">
		<g>
			<path d="M19.298,26.69c0.164,0.924-0.139,1.843-0.162,2.767c-0.017,0.646,0.983,0.644,1,0c0.026-1.032,0.311-1.996,0.127-3.032
				C20.15,25.79,19.187,26.061,19.298,26.69L19.298,26.69z"/>
		</g>
	</g>
	<g display="inline">
		<g>
			<path d="M17.104,26.267c0,1.232,0,2.466,0,3.698c0,0.645,1,0.645,1,0c0-1.232,0-2.466,0-3.698
				C18.104,25.622,17.104,25.622,17.104,26.267L17.104,26.267z"/>
		</g>
	</g>
	<g display="inline">
		<g>
			<path d="M10.686,8.419c-0.812-1.376-1.5-2.286-3.229-2.181C6.254,6.312,5.35,5.275,5.513,4.081
				c0.15-1.095,2.124-0.436,2.936-0.646c0.49-0.126,0.782-0.555,0.985-0.98C9.894,1.492,10.954,0.819,12,1.343
				c1.263,0.633,0.089,2.496,0.049,3.458c-0.043,1.027,0.085,1.846,0.652,2.717c0.35,0.538,1.216,0.038,0.863-0.505
				c-1.121-1.724,0.147-3.14-0.033-4.905c-0.081-0.788-0.582-1.406-1.27-1.751c-0.653-0.327-1.573-0.252-2.208,0.08
				c-1.04,0.544-1.569,2.295-2.885,2.008c-1.833-0.4-2.986,0.932-2.551,2.704c0.191,0.776,0.756,1.417,1.405,1.848
				c0.421,0.28,0.956,0.258,1.436,0.241c1.36-0.048,1.774,0.684,2.366,1.686C10.15,9.479,11.015,8.976,10.686,8.419L10.686,8.419z"
				/>
		</g>
	</g>
	<g display="inline">
		<g>
			<path d="M25.281,8.924c0.469-0.792,0.797-1.625,1.899-1.715c0.561-0.045,1.135,0.165,1.676-0.096
				c0.707-0.339,1.282-0.95,1.551-1.696c0.498-1.386-0.15-3.413-1.994-3.06c-0.586,0.173-1.17,0.114-1.753-0.177
				c-0.147-0.231-0.242-0.502-0.385-0.739c-0.22-0.366-0.582-0.619-0.926-0.856c-0.684-0.471-1.604-0.521-2.371-0.278
				c-0.761,0.241-1.185,0.942-1.372,1.668c-0.135,0.519,0.002,1.054,0.127,1.557c0.314,1.262,0.586,2.308-0.178,3.481
				c-0.354,0.542,0.513,1.043,0.863,0.505c0.471-0.723,0.647-1.395,0.673-2.251c0.034-1.173-0.867-2.373-0.366-3.503
				c0.574-1.295,2.362-0.359,2.843,0.443c0.31,0.517,0.426,0.883,0.983,1.178c0.873,0.461,2.058-0.428,2.839,0.247
				c0.799,0.688-0.194,2.102-0.796,2.502c-0.367,0.244-1.4,0.075-1.873,0.113c-0.336,0.027-0.652,0.223-0.937,0.387
				c-0.648,0.373-1.005,1.173-1.367,1.786C24.089,8.976,24.953,9.479,25.281,8.924L25.281,8.924z"/>
		</g>
	</g>
	<g display="inline">
		<g>
			<path d="M22.433,27.432c0.466,0.646,0.973,1.26,1.443,1.903c0.624,0.851,0.341,1.828,0.507,2.767
				c0.178,1.009,0.855,1.929,1.674,2.504c0.515,0.361,1.573,0.347,2.026-0.131c0.35-0.367,0.516-0.713,0.683-1.189
				c0.359-1.028,1.019-1.082,1.951-1.274c1.665-0.343,2.427-3.014,1.491-4.285c-0.523-0.711-1.446-0.653-2.213-0.509
				c-1.23,0.232-2.193,1.012-3.354-0.079c-0.501-0.471-0.882-1.033-1.413-1.479c-0.49-0.412-1.201,0.292-0.707,0.707
				c0.925,0.776,1.758,2.396,3.143,2.417c0.94,0.014,1.708-0.334,2.598-0.602c1.403-0.423,1.474,0.627,1.295,1.443
				c-0.209,0.956-0.871,1.362-1.751,1.53c-0.513,0.099-1.099,0.239-1.43,0.685c-0.192,0.258-0.346,0.49-0.447,0.799
				c-0.525,1.584-1.529,1.262-2.218,0.139c-0.573-0.934-0.151-1.876-0.454-2.831c-0.374-1.176-1.249-2.034-1.96-3.019
				C22.923,26.409,22.055,26.908,22.433,27.432L22.433,27.432z"/>
		</g>
	</g>
	<g display="inline">
		<g>
			<path d="M11.404,26.928c-0.512,0.709-1.527,1.652-1.802,2.521c-0.287,0.904-0.089,1.826-0.348,2.73
				c-0.189,0.663-0.667,1.374-1.322,1.649c-0.819,0.345-1.023-0.888-1.211-1.31c-0.324-0.728-0.717-1.037-1.46-1.293
				c-0.43-0.147-0.743-0.064-1.202-0.26c-0.638-0.272-0.947-1.261-1.001-1.883c-0.167-1.91,2.658-0.28,3.454-0.292
				c1.805-0.027,2.412-1.371,3.667-2.425c0.495-0.415-0.217-1.119-0.707-0.707c-0.425,0.356-0.776,0.757-1.137,1.177
				c-0.898,1.047-1.938,0.979-3.139,0.529c-0.932-0.35-1.844-0.384-2.627,0.26c-1.411,1.157,0.014,3.79,1.294,4.336
				c0.338,0.144,0.78,0.161,1.132,0.229c0.887,0.17,0.949,1.259,1.291,1.919c0.417,0.808,1.519,0.85,2.237,0.548
				c0.886-0.373,1.371-1.371,1.695-2.212c0.228-0.589,0.185-1.233,0.171-1.85c-0.027-1.204,1.215-2.245,1.878-3.163
				C12.646,26.908,11.777,26.41,11.404,26.928L11.404,26.928z"/>
		</g>
	</g>
	<g display="inline">
		<g>
			<path fill="#020202" d="M20.552,9.054c-3.78-2.587-8.402,0.995-8.827,4.96c-0.14,1.311,0.224,3.376,1.867,3.544
				c1.892,0.193,2.765-1.342,3.217-2.973c0.341-1.231,0.196-3.034-1.023-3.748c-1.477-0.865-3.489,0.879-4.303,1.927
				c-0.936,1.204-0.573,2.48,0.717,3.153c1.29,0.672,1.933-1.476,2.097-2.245c0.083-0.39-0.232-0.688-0.615-0.615
				c-1.128,0.216-1.982,1.292-2.119,2.396c-0.044,0.358,0.466,0.65,0.752,0.432c0.939-0.716,3.59-2.905,3.181-4.392
				c-0.381-1.388-1.602-0.164-2.041,0.428c-0.684,0.923-1.531,2.623-0.221,3.332c1.465,0.792,2.776-1.364,2.636-2.523
				c-0.043-0.356-0.397-0.649-0.752-0.432c-1.193,0.729-1.713,2.026-1.837,3.382c-0.045,0.493,0.717,0.688,0.932,0.252
				c0.267-0.541,0.309-0.639,0.473-1.221c0.151-0.534-0.674-0.91-0.914-0.385c-0.326,0.714-1.88,3.521,0.078,3.521
				c1.467,0,2.617-2.609,2.912-3.753c0.092-0.358-0.243-0.73-0.615-0.615c-0.816,0.253-1.494,0.628-2.102,1.232
				c-0.383,0.38,0.019,0.914,0.486,0.835c0.459-0.076,0.509-0.106,0.931-0.311c0.319-0.154,0.283-0.552,0.101-0.785
				c-0.764-0.979-1.808-1.429-2.695-2.264c-0.343-0.323-0.869-1.126-1.421-1.126c-1.496,0-2.552,3.484-2.785,4.551
				c-0.083,0.378,0.355,0.855,0.734,0.564c1.247-0.957,2.532-2.298,2.954-3.867c0.421-1.565,1.307-2.03,2.596-2.576
				c0.563-0.238,0.867-0.417,1.148-0.937c0.181-0.334-0.045-0.747-0.432-0.752c-1.253-0.017-2.3,0.507-3.474,0.894
				c0.128,0.304,0.257,0.609,0.385,0.914c0.779-0.375,1.597-0.427,2.368-0.811c0.472-0.235,0.212-0.909-0.252-0.932
				c-4.351-0.213-7.313,4.058-8.318,7.759c-0.566,2.083-0.229,4.73,0.678,6.668c1.086,2.323,4.31,2.084,5.716,4.133
				c0.215,0.313,0.845,0.351,0.914-0.119c0.17-1.149-0.039-2.122-1.123-2.783c-0.834-0.508-1.719-0.89-2.604-1.298
				C8.457,21.78,8.48,20.529,8.264,19.11c-0.436-2.865-0.162-6.668,2.991-7.943c2.283-0.923,5.13-2.188,7.619-2.188
				c0.645,0,0.645-1,0-1c-2.719,0-5.359,1.38-7.885,2.224c-1.822,0.608-2.831,2.199-3.49,3.91c-0.833,2.162-0.291,4.513,0.013,6.716
				c0.085,0.618,0.238,1.398,0.776,1.803c1.146,0.862,4.725,1.632,4.427,3.652c0.304-0.04,0.609-0.08,0.914-0.119
				c-0.641-0.935-1.464-1.442-2.385-2.094c-0.505-0.357-1.554-0.504-2.056-0.776c-1.824-0.992-1.937-3.318-2.042-5.118
				c-0.232-3.965,3.152-9.283,7.543-9.067c-0.084-0.311-0.168-0.621-0.252-0.932c-0.765,0.381-1.598,0.44-2.368,0.811
				c-0.512,0.247-0.15,1.09,0.385,0.914c1.071-0.352,2.047-0.873,3.208-0.857c-0.144-0.251-0.288-0.501-0.432-0.752
				c-0.465,0.857-2.316,0.921-3.121,1.674c-0.342,0.32-0.452,1.006-0.55,1.429c-0.371,1.598-1.383,2.931-2.669,3.918
				c0.245,0.188,0.49,0.376,0.734,0.564c0.134-0.612,1.289-4.212,2.248-3.27c0.943,0.927,2.159,1.496,2.982,2.55
				c0.034-0.262,0.067-0.523,0.101-0.785c-0.23,0.07-0.461,0.14-0.691,0.21c0.162,0.278,0.324,0.557,0.486,0.835
				c0.458-0.488,1.011-0.813,1.661-0.975c-0.205-0.205-0.41-0.41-0.615-0.615c-0.186,0.72-0.587,1.371-0.976,1.997
				c-0.142,0.572-0.44,0.768-0.896,0.588c0.12-0.526,0.48-1.082,0.709-1.583c-0.305-0.128-0.609-0.257-0.914-0.385
				c-0.124,0.327-0.248,0.655-0.372,0.982c0.311,0.084,0.621,0.168,0.932,0.252c0.054-1.013,0.502-1.852,1.342-2.519
				c-0.251-0.144-0.501-0.288-0.752-0.432c-0.063-0.517-1.583,1.273-0.551-0.303c-0.27,0.412-1.789,2.047-2.509,2.596
				c0.251,0.144,0.501,0.288,0.752,0.432c0.197-0.729,0.659-1.206,1.384-1.432c-0.205-0.205-0.41-0.41-0.615-0.615
				c-0.052,0.278-0.119,0.552-0.202,0.822c-0.217-0.376-0.435-0.753-0.652-1.129c0.366-0.409,0.788-0.753,1.264-1.034
				c3.159-2.096,1.898,3.021,1.522,3.72c-1.938,0.11-2.785-0.48-2.54-1.772c0.039-1.438,0.825-2.434,1.751-3.402
				c1.301-1.358,3.937-1.813,5.572-0.695C20.581,10.282,21.081,9.416,20.552,9.054L20.552,9.054z"/>
		</g>
	</g>
	<g display="inline">
		<g>
			<path d="M14.297,9.139c-1.057,0.208-2.133,0.286-3.179,0.551c-0.546,0.138-0.433,0.998,0.133,0.982
				c0.726-0.02,1.387-0.223,2.076-0.438c0.704-0.219,1.443-0.163,2.143-0.392c0.282-0.092,0.497-0.459,0.299-0.734
				c-1.53-2.124-4.622,0.404-5.715,1.716c-0.41,0.492,0.294,1.203,0.707,0.707c0.563-0.675,1.173-1.115,1.904-1.59
				c0.509-0.331,1.697-1.083,2.241-0.328c0.1-0.245,0.199-0.49,0.299-0.734c-0.59,0.192-1.215,0.165-1.819,0.3
				c-0.729,0.163-1.374,0.472-2.135,0.493c0.044,0.327,0.088,0.655,0.133,0.982c1.046-0.265,2.122-0.342,3.179-0.551
				C15.195,9.978,14.927,9.014,14.297,9.139L14.297,9.139z"/>
		</g>
	</g>
	<g display="inline">
		<g>
			<path d="M13.289,7.456c-3.254,0.667-5.517,4.317-6.582,7.208c-0.639,1.734-0.616,3.838-0.331,5.633
				c0.285,1.792,0.708,1.942,1.963,3.102c0.236-0.569,0.471-1.138,0.707-1.707c-0.076-0.003-0.151-0.006-0.227-0.008
				c-0.398-0.015-0.907,0.312-0.964,0.733c-0.01,0.078-0.021,0.157-0.032,0.235c0.655,0.089,1.31,0.177,1.964,0.266
				c0-0.119,0-0.238,0-0.357c-0.569,0.235-1.138,0.472-1.707,0.707c1.048,1.079,2.363,1.601,3.639,2.363
				c1.11,0.664,2.115-1.065,1.01-1.727c-1.112-0.665-2.313-1.102-3.235-2.051c-0.612-0.63-1.707-0.156-1.707,0.707
				c0,0.119,0,0.238,0,0.357c0,1.096,1.81,1.407,1.964,0.266c0.011-0.078,0.021-0.156,0.032-0.234
				c-0.321,0.244-0.643,0.489-0.964,0.734c0.076,0.002,0.151,0.005,0.227,0.008c0.859,0.031,1.342-1.121,0.707-1.707
				c-1.722-1.589-1.735-3.437-1.385-5.745c0.381-2.513,2.718-6.294,5.452-6.854C15.083,9.126,14.547,7.198,13.289,7.456
				L13.289,7.456z"/>
		</g>
	</g>
	<g display="inline">
		<g>
			<path d="M9.701,13.648c-1.454,1.595-1.31,3.47-1.233,5.507c0.089,2.381,0.573,3.477,2.875,4.239
				c0.518,0.172,1.09-0.193,1.23-0.698c0.594-2.146-0.914-4.31,0.01-6.29c0.391-0.837,1.062-1.582,1.6-2.324
				c0.176-0.243,0.829-2.027,0.85-2.042c1.054-0.727,0.055-2.461-1.01-1.727c-0.535,0.369-0.694,0.592-0.832,1.239
				c-0.307,1.438-1.599,2.607-2.335,3.844c-1.401,2.354,0.442,4.409-0.212,6.769c0.41-0.233,0.82-0.466,1.23-0.698
				c-1.892-0.628-1.974-5.071-0.759-6.404C11.982,14.112,10.572,12.693,9.701,13.648L9.701,13.648z"/>
		</g>
	</g>
	<g display="inline">
		<g>
			<path d="M14.852,9.788c-4.466,0.388-7.166,7.204-1.834,8.706c2.04,0.574,3.888-0.04,4.643-2.139
				c0.792-2.203,0.999-4.479-1.504-5.363c-0.318-0.112-0.749,0.011-0.973,0.257c-0.693,0.762-1.738,2.203-1.612,3.309
				c0.104,0.912,0.81,2.21,2.001,1.768c2.084-0.773,3.405-5.533,0.156-5.467c-1.647,0.034-2.298,0.784-2.846,2.291
				c-0.407,1.12-0.21,2.86,1.208,3.155c3.171,0.659,8.104-1.029,7.697-5.127c-0.032-0.329-0.161-0.715-0.495-0.863
				c-1.252-0.557-4.568,0.312-4.406-1.618c0.034-0.406-0.327-0.895-0.734-0.964c-0.096-0.016-0.192-0.032-0.288-0.049
				c-0.33-0.056-0.74-0.032-0.973,0.257c-0.043,0.054-0.087,0.108-0.13,0.162C14.3,8.675,14.421,9.55,15.202,9.773
				c0.649,0.186,1.2,0.072,1.888,0.012c1.688-0.149,2.641,0.492,4.101,1.152c0.815,0.369,2.006-0.458,1.368-1.368
				c-0.151-0.216-0.303-0.432-0.454-0.648c-0.199,0.49-0.398,0.979-0.598,1.469c1.688-0.354,3.272,2.676,3.667,3.647
				c0.479,1.179,2.414,0.664,1.928-0.531C26.086,11,24.078,7.813,20.977,8.461c-0.602,0.126-0.957,0.957-0.598,1.469
				c0.151,0.216,0.303,0.432,0.454,0.648c0.456-0.456,0.912-0.912,1.368-1.368c-0.899-0.407-1.572-1.024-2.523-1.33
				c-1.277-0.409-2.722,0.314-3.944-0.036c0.147,0.557,0.294,1.114,0.441,1.671c-0.185,0.048-0.37,0.096-0.555,0.144
				c-0.245-0.321-0.489-0.643-0.734-0.964c-0.098,1.172-0.454,1.921,0.758,2.631c1.401,0.821,2.774,0.9,4.319,0.707
				c-0.666,0.083-2.176,2.143-2.666,2.328c-1.017,0.464-1.845,0.237-2.486-0.681c0.274,0.217,0.548,0.435,0.822,0.652
				c0.164-0.454,0.38-0.879,0.649-1.276c-0.669,1.095,0.305,3.47-1.793,3.702c-3.459,0.383-2.683-4.706,0.363-4.97
				C16.126,11.677,16.137,9.676,14.852,9.788L14.852,9.788z"/>
		</g>
	</g>
	<g display="inline">
		<g>
			<path d="M22.307,10.634c-0.784,0.234-1.469,0.591-2.157,1.029c-0.887,0.564-1.829,0.95-2.721,1.472
				c-1.161,0.68-1.762,2.716-0.741,3.767c1.074,1.106,2.53,0.754,3.769,0.149c0.782-0.382,1.87-0.663,2.466-1.341
				c0.612-0.696,0.821-1.259,1.765-1.559c-0.41-0.41-0.82-0.82-1.229-1.23c-0.057,0.372-0.103,0.733-0.134,1.108
				c-0.107,1.286,1.893,1.275,2,0c0.021-0.192,0.041-0.385,0.062-0.577c0.105-0.702-0.43-1.484-1.229-1.23
				c-0.765,0.243-1.545,0.544-2.06,1.179c-0.365,0.451-0.55,0.879-1.077,1.189c-0.494,0.292-1.05,0.497-1.572,0.733
				c-0.237,0.107-1.659,0.802-1.136-0.311c0.139-0.297,1.077-0.516,1.379-0.675c1.079-0.572,1.957-1.419,3.148-1.776
				C24.07,12.194,23.545,10.264,22.307,10.634L22.307,10.634z"/>
		</g>
	</g>
	<g display="inline">
		<g>
			<path d="M24.459,11.852c1.646,1.443,1.803,3.6,1.94,5.657c0.094,1.405,0.364,2.852-0.949,3.847
				c-0.856,0.649-2.052,1.1-3.028,1.543c0.456,0.456,0.912,0.912,1.368,1.368c1.868-2.763,5.594-6.299,2.49-9.816
				c-1.034-1.172-2.809,0.227-3.674,0.792c-1.226,0.801-2.852,1.49-4.255,1.81c-1.228,0.279-3.103-0.004-4.231,0.688
				c-1.942,1.192-1.302,2.697-1.859,4.654c-0.46,1.614,1.563,2.018,2.652,1.879c1.446-0.185,2.677-0.819,2.677-2.409
				c0-1.263-1.457-2.807-2.707-2.735c-0.322,0.019-0.725,0.17-0.863,0.495c-0.188,0.44-0.273,0.737-0.299,1.219
				c-0.025,0.47,0.33,0.813,0.734,0.964c1.489,0.555,3.083-0.251,4.382-0.936c1.232-0.648,2.545-0.83,3.795-1.375
				c0.49-0.179,0.951-0.416,1.383-0.709c0.454-0.27-0.323-0.629,0.19-0.357c0.308,0.163,0.705,0.199,1.01,0
				c0.109-0.071,0.219-0.144,0.329-0.215c0.284-0.186,0.518-0.505,0.495-0.863c-0.053-0.821-0.296-1.367-0.85-1.984
				c-0.345-0.385-1.071-0.397-1.414,0c-0.771,0.893-0.984,1.98-1.295,3.102c-0.313,1.132-1.182,1.812-1.747,2.777
				c-0.659,1.126-0.17,0.797,0.733,0.79c-0.168-0.621-0.337-1.242-0.505-1.863c-1.488,1.107-3.43,1.759-5.092,2.595
				c-1.152,0.579-0.139,2.305,1.01,1.727c1.662-0.836,3.603-1.487,5.092-2.595c0.751-0.559,0.571-1.871-0.505-1.863
				c-1.277,0.009-2.39,0.09-3.152,1.197c-0.637,0.926,0.499,2.854,1.455,3.087c2.092,0.51,1.996-1.201,3.046-2.491
				c0.625-0.769,1.061-1.315,1.432-2.245c0.347-0.866,0.311-2.071,0.942-2.803c-0.472,0-0.942,0-1.414,0
				c0.563,0.628,1.822-0.442,0.48-0.442c-0.679,0-1.424,0.823-1.935,1.125c-0.913,0.541-2.039,0.499-2.992,0.935
				c-1.198,0.548-2.986,1.984-4.343,1.479c0.245,0.321,0.49,0.643,0.734,0.964c-0.222,0.418-0.382,0.857-0.479,1.318
				c-0.29,0.106-0.585,0.166-0.886,0.18c0.312-1.096-0.084-2.781,1.721-3c1.929-0.232,3.722-0.406,5.462-1.337
				c0.895-0.478,1.821-0.867,2.672-1.423c1.237-0.809,1.121,0.442,1.11,1.462c-0.015,1.342-2.384,3.922-3.258,5.214
				c-0.618,0.914,0.542,1.743,1.368,1.368c3.299-1.499,5.167-2.649,5.005-6.475c-0.117-2.758-0.361-5.783-2.563-7.713
				C24.907,9.591,23.487,11,24.459,11.852L24.459,11.852z"/>
		</g>
	</g>
	<g display="inline">
		<g>
			<path d="M14.28,23.153c-0.647,1.275-1.438,2.891-0.879,4.306c0.498,1.259,2.054,2.263,3.388,2.335
				c1.576,0.085,3.044-0.159,4.252-1.213c0.69-0.603,0.885-1.51,1.731-1.983c0.54-0.302,0.869-0.746,0.989-1.343
				c0.101-0.495-0.136-1.128-0.698-1.229c-1.288-0.234-2.56,0.114-3.868,0.051c-0.881-0.042-1.873-0.331-2.708,0.105
				c-1.534,0.8-1.64,3.1,0.122,3.694c1.079,0.364,3.852,0.572,3.751-1.274c-0.081-1.486-1.426-3.196-2.766-3.807
				c-1.165-0.53-2.182,1.192-1.01,1.727c0.458,0.209,0.78,0.569,1.114,0.937c0.24,0.265,0.48,0.611,0.62,0.943
				c0.06-0.094,0.12-0.188,0.18-0.281c-0.218,0.017-0.436,0.017-0.653,0.001c-0.946-0.032-0.046-0.17,0.127-0.165
				c0.405,0.012,0.821,0.077,1.223,0.12c1.091,0.118,2.281-0.314,3.337-0.123c-0.233-0.409-0.466-0.819-0.698-1.229
				c-0.05,0.244-0.943,0.761-1.145,0.964c-0.69,0.695-0.835,1.576-1.864,1.95c-0.835,0.304-1.954,0.258-2.739-0.132
				c-1.313-0.652-0.575-2.366-0.08-3.343C16.589,23.016,14.863,22.003,14.28,23.153L14.28,23.153z"/>
		</g>
	</g>
	<g display="inline">
		<g>
			<path d="M25.691,16.03c0.607,0.71,1.111,1.43,1.156,2.396c0.028,0.604-0.233,1.336-0.281,1.956
				c-0.104,1.346-2.011,1.894-2.952,2.764c-0.949,0.877,0.469,2.288,1.414,1.414c1.609-1.487,3.484-1.671,3.538-4.178
				c0.024-1.144,0.378-2.046,0.114-3.202c-0.221-0.971-0.946-1.829-1.575-2.565C26.267,13.634,24.858,15.056,25.691,16.03
				L25.691,16.03z"/>
		</g>
	</g>
	<g display="inline">
		<g>
			<path d="M25.407,13.047c0.262,0.157,0.828,1.158,0.976,1.608c0.37,1.131,0.498,2.216,0.283,3.393
				c-0.231,1.261,1.695,1.799,1.928,0.531c0.286-1.56,0.168-2.94-0.283-4.456c-0.301-1.013-0.959-2.246-1.894-2.803
				C25.307,10.657,24.302,12.387,25.407,13.047L25.407,13.047z"/>
		</g>
	</g>
	<g display="inline">
		<g>
			<path d="M11.779,26.587c0.286,1.1,0.928,2.192,1.685,3.035c0.71,0.791,2.109,0.644,3.042,0.65
				c1.115,0.008,2.174,0.815,3.292,0.19c0.972-0.543,1.22-1.607,2.11-2.208c1.063-0.717,0.063-2.45-1.01-1.727
				c-1.146,0.773-1.593,2.397-3.189,1.96c-0.552-0.151-1.092-0.215-1.664-0.219c-1.29-0.01-2.038-1.063-2.337-2.214
				C13.383,24.809,11.454,25.338,11.779,26.587L11.779,26.587z"/>
		</g>
	</g>
	<g display="inline">
		<g>
			<path d="M19.953,28.662c0.149,0.363,0.029-0.5,0.263-0.65c-0.1,0.05-0.104,0.054-0.012,0.013
				c-0.062,0.022-0.124,0.042-0.187,0.061c-0.208,0.063-0.424,0.1-0.633,0.157c-1.242,0.341-0.715,2.271,0.531,1.928
				c0.91-0.249,2.512-0.716,1.965-2.039c-0.208-0.504-0.655-0.856-1.229-0.698C20.175,27.563,19.744,28.157,19.953,28.662
				L19.953,28.662z"/>
		</g>
	</g>
	<g display="inline">
		<g>
			<path fill="#F9F9FA" d="M13.638,26.677c0.07,1.483,0.21,2.98-0.144,4.439c-0.153,0.626,0.812,0.893,0.964,0.266
				c0.377-1.551,0.254-3.127,0.18-4.705C14.608,26.035,13.608,26.032,13.638,26.677L13.638,26.677z"/>
		</g>
	</g>
	<g display="inline">
		<g>
			<path fill="#F9F9FA" d="M20.418,26.677c-0.076,1.578-0.198,3.154,0.179,4.705c0.152,0.627,1.117,0.36,0.965-0.266
				c-0.355-1.459-0.216-2.956-0.144-4.439C21.449,26.032,20.449,26.035,20.418,26.677L20.418,26.677z"/>
		</g>
	</g>
	<g display="inline">
		<g>
			<path fill="#F9F9FA" d="M17.076,26.384c-0.005,1.605-0.071,3.207-0.261,4.803c-0.076,0.64,0.925,0.632,1,0
				c0.189-1.596,0.256-3.197,0.261-4.803C18.078,25.739,17.078,25.739,17.076,26.384L17.076,26.384z"/>
		</g>
	</g>
	<g display="inline">
		<g>
			<path fill="#F9F9FA" d="M11.287,12.896c-1.217-0.277-2.812,0.28-3.077,1.623c-0.299,1.512,1.541,1.944,2.639,2.067
				c1.351,0.151,3.013,0.099,3.419-1.46c0.467-1.79-1.865-2.245-3.081-2.217c-0.644,0.015-0.645,1.015,0,1
				c0.711-0.016,2.583,0.05,2.006,1.295c-0.296,0.639-1.621,0.435-2.167,0.397c-0.563-0.039-1.423-0.115-1.784-0.614
				c-0.615-0.852,1.331-1.23,1.78-1.128C11.649,14.002,11.916,13.038,11.287,12.896L11.287,12.896z"/>
		</g>
	</g>
	<g display="inline">
		<g>
			<path fill="#F9F9FA" d="M23.733,13.859c0.617-0.14,1.548,0.071,1.808,0.723c0.329,0.829-1.349,0.977-1.811,1.02
				c-0.621,0.057-1.33,0.115-1.909-0.157c-0.655-0.309-0.325-1.019,0.118-1.297c0.485-0.305,1.084-0.25,1.628-0.238
				c0.646,0.015,0.644-0.985,0-1c-1.216-0.028-3.548,0.427-3.081,2.217c0.412,1.578,2.064,1.584,3.421,1.46
				c1.104-0.102,2.933-0.571,2.638-2.067c-0.265-1.344-1.86-1.899-3.077-1.623C22.839,13.038,23.105,14.002,23.733,13.859
				L23.733,13.859z"/>
		</g>
	</g>
	<g display="inline">
		<g>
			<path fill="#F9F9FA" d="M12.289,13.979c-0.878,0.006-1.74,0.091-2.598,0.279c-0.213,0.046-0.37,0.269-0.367,0.482
				c0.02,1.441,2.594,1.319,3.549,1.213c0.633-0.071,0.64-1.072,0-1c-0.452,0.05-0.913,0.042-1.367,0.017
				c-0.282-0.016-0.558-0.053-0.833-0.119c-0.089-0.021-0.18-0.048-0.263-0.087c-0.108-0.05-0.087-0.077-0.086-0.024
				c-0.123,0.161-0.245,0.321-0.367,0.482c0.772-0.169,1.542-0.237,2.332-0.243C12.934,14.974,12.934,13.974,12.289,13.979
				L12.289,13.979z"/>
		</g>
	</g>
	<g display="inline">
		<g>
			<path fill="#F9F9FA" d="M24.453,13.476c-0.878,0.006-1.74,0.091-2.599,0.278c-0.214,0.046-0.37,0.269-0.367,0.482
				c0.021,1.441,2.594,1.321,3.549,1.213c0.633-0.071,0.641-1.072,0-1c-0.452,0.051-0.913,0.042-1.366,0.017
				c-0.281-0.016-0.558-0.054-0.833-0.119c-0.089-0.021-0.18-0.048-0.263-0.087c-0.108-0.05-0.088-0.077-0.087-0.024
				c-0.122,0.161-0.245,0.321-0.367,0.482c0.772-0.168,1.543-0.236,2.333-0.242C25.098,14.471,25.099,13.471,24.453,13.476
				L24.453,13.476z"/>
		</g>
	</g>
	<g display="inline">
		<g>
			<path d="M16.109,9.683c0.406-0.088,0.794-0.147,1.188-0.281c0.882-0.3,0.922-1.301,0.239-1.828
				c-1.56-1.204-4.436,0.146-5.947,0.844c-1.658,0.765-4.222,2.354-4.834,4.191c-0.409,1.227,1.523,1.749,1.929,0.531
				c0.303-0.908,2.131-1.945,2.866-2.451c0.756-0.521,3.987-2.153,4.977-1.389c0.08-0.609,0.159-1.218,0.239-1.828
				c-0.394,0.134-0.782,0.193-1.188,0.281C14.318,8.029,14.853,9.957,16.109,9.683L16.109,9.683z"/>
		</g>
	</g>
	<g display="inline">
		<g>
			<path d="M11.224,12.27c1.901-0.835,7.097-1.399,7.163-4.16c0.011-0.428-0.311-0.868-0.734-0.964
				c-0.16-0.037-0.32-0.073-0.48-0.109C17.083,7.69,16.995,8.345,16.906,9c2.423-0.258,5.87,0.406,7.812,1.995
				c2.171,1.777,3.212,7.649,1.669,10.063c-0.697,1.09,1.034,2.093,1.727,1.01c1.966-3.074,0.746-7.92-0.793-10.96
				C25.612,7.733,20.279,6.641,16.906,7c-1.05,0.112-1.446,1.696-0.266,1.964c0.16,0.037,0.32,0.073,0.48,0.109
				c-0.245-0.321-0.49-0.643-0.734-0.964c-0.019,0.783-5.187,2-6.173,2.434C9.036,11.061,10.055,12.783,11.224,12.27L11.224,12.27z"
				/>
		</g>
	</g>
	<g display="inline">
		<g>
			<path d="M25.344,17.781c-1.506,0.197-1.933,1.003-2.594,2.311c-0.028,0.055-4.86-2.014-5.609-2.014
				c-0.792,0-1.129,0.25-1.751,0.715c-0.543,0.406-1.068-0.465-1.541-0.813c-0.347-0.255-1.241-0.302-1.591-0.034
				c-0.792,0.606-3.154-0.712-3.293-1.744c-0.172-1.273-2.099-0.729-1.929,0.531c0.244,1.806,2.361,2.649,3.693,3.534
				c0.395,0.263,1.286,0.312,1.682,0.032c0.859-0.604,1.579,0.679,2.573,0.819c1.023,0.146,1.835-1.251,2.917-0.753
				c1.34,0.617,2.85,1.402,4.239,1.784c2.283,0.629,1.798-2.187,3.203-2.37C26.604,19.616,26.62,17.614,25.344,17.781L25.344,17.781
				z"/>
		</g>
	</g>
	<g display="inline">
		<g>
			<path d="M6.918,19.13c0.71,0.976,1.521,2.434,2.608,3.015c1.032,0.552,1.93,1.98,3.224,1.98c1.624,0,2.807-1.832,1.613-3.051
				c-0.404,0.523-0.808,1.047-1.212,1.57c1.08,0.735,2.715,1.267,3.955,0.541c0.361-0.212,0.681-0.509,0.877-0.878
				c0.094-0.345,0.148-0.316,0.161,0.085c0.334-0.123,1.401-0.178,1.841-0.272c1.177-0.252,0.789-1.865-0.266-1.964
				c-0.594-0.109-1.188-0.109-1.781,0c0.321,0.245,0.643,0.489,0.964,0.734c-0.246-1.411,0.327-2.778,0.094-4.188
				c-0.18-1.093-0.042-1.895,0.375-2.906c0.272-0.659-0.055-1.584,0.271-2.205c0.619-1.18,1.326-2.445-0.412-2.974
				c-0.949-0.289-2.749,0.096-3.065,1.188c-0.486,1.679,1.128,3.857,1.652,5.428c0.406,1.217,2.337,0.696,1.928-0.531
				c-0.364-1.095-0.591-2.729-1.194-3.677c-0.424-0.665-0.548-0.438,0.029-0.477c-0.257-0.583-0.479-0.573-0.666,0.032
				c-0.112,0.189-0.207,0.385-0.285,0.59c-0.213,1.507-0.681,2.958-0.76,4.466c-0.065,1.242,0.222,2.306,0.016,3.594
				c-0.129,0.808-0.05,1.4,0.088,2.19c0.071,0.405,0.557,0.771,0.964,0.734c0.594-0.109,1.188-0.109,1.781,0
				c-0.089-0.654-0.177-1.31-0.266-1.964c-0.849,0.182-1.841,0.119-2.614,0.569c-1.036,0.603-1.29,1.102-2.678,0.156
				c-0.962-0.655-1.988,0.778-1.212,1.57c-1.445-1.476-3.065-2.668-4.305-4.368C7.894,17.089,6.157,18.085,6.918,19.13L6.918,19.13z
				"/>
		</g>
	</g>
	<g display="inline">
		<g>
			<path d="M19.578,16.308c0.561-0.198,0.957-0.62,0.922-1.246c-0.071-1.282-2.071-1.289-2,0c0.004-0.026,0.008-0.052,0.013-0.078
				c0.085-0.147,0.171-0.294,0.257-0.441c-0.021,0.02-0.043,0.039-0.064,0.059c0.147-0.086,0.294-0.171,0.441-0.257
				c-0.033,0.012-0.066,0.023-0.1,0.035c-0.514,0.181-0.851,0.676-0.698,1.23C18.485,16.107,19.064,16.49,19.578,16.308
				L19.578,16.308z"/>
		</g>
	</g>
	<g display="inline">
		<g>
			<path d="M22.641,12.058c0.179,0.058,0.382,0.117,0.527,0.243c0.817,0.706,2.229-0.211,1.57-1.212
				c-0.574-0.871-2.137-0.644-2.899-0.108c-0.577,0.405-0.715,1.353,0,1.727c0.138,0.072,0.273,0.135,0.427,0.164
				c0-0.643,0-1.286,0-1.929c-0.489,0.084-0.934,0.296-1.406,0.438c-1.232,0.368-0.707,2.299,0.531,1.929
				c0.474-0.142,0.917-0.354,1.406-0.438c0.965-0.165,0.952-1.752,0-1.929c0.018,0.013,0.034,0.025,0.052,0.039
				c0,0.576,0,1.151,0,1.727c0.04-0.028,0.208-0.096,0.035-0.031c0.104-0.039,0.212-0.066,0.318-0.094
				c0.114-0.03,0.23-0.051,0.347-0.071c-0.082,0.013-0.066,0.014,0.047,0.004c0.2,0.009,0.118-0.021-0.246-0.089
				c-0.12-0.12-0.239-0.239-0.359-0.359c0.007,0.011,0.015,0.021,0.021,0.032c0.523-0.404,1.047-0.808,1.57-1.212
				c-0.419-0.362-0.885-0.586-1.41-0.757C21.942,9.729,21.42,11.661,22.641,12.058L22.641,12.058z"/>
		</g>
	</g>
	<g display="inline">
		<g>
			<path d="M22.067,20.859c-0.823,2.03-1.935,1.771-3.813,1.906c-0.706,0.051-1.405,0.286-2.086,0.461
				c-0.942,0.242-2.022-0.077-2.981-0.133c0,0.667,0,1.333,0,2c1.056,0.01,2.103,0.029,3.156-0.063c1.274-0.111,1.286-2.112,0-2
				c-1.054,0.092-2.1,0.072-3.156,0.063c-1.298-0.012-1.277,1.926,0,2c1.256,0.073,2.268,0.305,3.513,0.062
				c1.291-0.253,2.433-0.356,3.74-0.402c1.999-0.071,2.913-1.777,3.555-3.362C24.48,20.195,22.545,19.68,22.067,20.859
				L22.067,20.859z"/>
		</g>
	</g>
	<g display="inline">
		<g>
			<path d="M18.703,24.474c-0.073,0.021-0.146,0.041-0.219,0.063c-1.238,0.354-0.711,2.283,0.531,1.928
				c0.073-0.021,0.146-0.041,0.219-0.063C20.473,26.048,19.945,24.118,18.703,24.474L18.703,24.474z"/>
		</g>
	</g>
	<g display="inline">
		<g>
			<path d="M19.203,26.276c0.034,0.008,0.069,0.015,0.104,0.021c-0.146-0.086-0.294-0.172-0.44-0.258
				c0.021,0.021,0.041,0.042,0.063,0.063c-0.086-0.146-0.172-0.294-0.258-0.44c0.007,0.034,0.014,0.069,0.021,0.104
				c0.106,0.535,0.732,0.835,1.229,0.698c0.554-0.151,0.806-0.695,0.698-1.229c-0.089-0.448-0.438-0.797-0.886-0.886
				c-0.534-0.107-1.078,0.145-1.229,0.698C18.368,25.544,18.668,26.17,19.203,26.276L19.203,26.276z"/>
		</g>
	</g>
	<g display="inline">
		<g>
			<path d="M22.656,25.969c0.682,0.028,1.211-0.033,1.72-0.516c0.66-0.626,1.422-1.024,2.206-1.5
				c1.326-0.806,2.057-2.242,2.351-3.719c0.252-1.259-1.676-1.796-1.928-0.531c-0.23,1.15-0.669,2.059-1.697,2.684
				c-0.539,0.327-1.091,0.632-1.625,0.969c-0.215,0.135-0.402,0.312-0.569,0.5c-0.227,0.255-0.087,0.129-0.457,0.113
				C21.366,23.914,21.371,25.914,22.656,25.969L22.656,25.969z"/>
		</g>
	</g>
	<g display="inline">
		<g>
			<path fill="#FFFFFF" d="M11.933,13.327c-1.098-0.347-3.737,0.52-2.757,2.078c0.702,1.117,3.197,0.96,4.073,0.177
				c0.468-0.418,0.351-1.282-0.202-1.57c-1.216-0.633-2.577-0.009-3.813,0.232c-1.265,0.247-0.729,2.175,0.531,1.929
				c0.41-0.08,0.811-0.201,1.217-0.299c0.224-0.055,0.453-0.106,0.683-0.13c0.094-0.01,0.464,0.042,0.372-0.006
				c-0.067-0.523-0.135-1.047-0.202-1.57c0.186-0.167,0.112-0.093-0.086-0.053c-0.125,0.025-0.283,0.025-0.419,0.032
				c-0.177,0.008-0.354,0.002-0.532-0.007c-0.139-0.013-0.152-0.013-0.041-0.002c-0.482-0.083,0.081-0.219,0.204,0.394
				c0,0.177,0,0.354,0,0.532c-0.024,0.134-0.354,0.4-0.163,0.292c-0.139,0.079,0.182-0.06,0.178-0.059
				c0.229-0.069,0.36-0.061,0.425-0.041C12.635,15.645,13.158,13.714,11.933,13.327L11.933,13.327z"/>
		</g>
	</g>
	<g display="inline">
		<g>
			<path fill="#FFFFFF" d="M9.859,13.619c-0.256,0.064-0.504,0.198-0.694,0.383c-0.074,0.073-0.141,0.147-0.206,0.228
				c-0.185,0.227-0.165,0.064,0.16-0.013c0.177,0,0.354,0,0.532,0c-0.017-0.005-0.035-0.01-0.052-0.016
				c-1.239-0.37-1.764,1.561-0.531,1.929c0.403,0.121,0.832,0,1.132-0.29c0.063-0.062,0.119-0.127,0.174-0.197
				c0.11-0.137,0.193-0.141,0.017-0.097C11.642,15.235,11.111,13.307,9.859,13.619L9.859,13.619z"/>
		</g>
	</g>
	<g display="inline">
		<g>
			<path fill="#FFFFFF" d="M23.943,13.619c-0.312,0.086-0.599,0.219-0.816,0.465c-0.615,0.696-0.16,1.607,0.707,1.707
				c0.296,0.034,0.579,0.034,0.875,0c-0.089-0.655-0.177-1.31-0.266-1.964c-0.497,0.121-1.166,0.434-1.604,0.101
				c-0.436-0.331-1.118-0.069-1.368,0.358c-0.301,0.514-0.074,1.039,0.358,1.368c0.926,0.704,2.127,0.35,3.146,0.101
				c1.076-0.263,0.869-2.095-0.266-1.964c-0.296,0.034-0.579,0.034-0.875,0c0.235,0.569,0.472,1.138,0.707,1.707
				c-0.224,0.089-0.246,0.105-0.066,0.049C25.717,15.205,25.188,13.275,23.943,13.619L23.943,13.619z"/>
		</g>
	</g>
	<g display="inline">
		<g>
			<path d="M15.623,29.725c-0.167,0.126-0.35,0.124-0.552,0.152c-0.604,0.087-0.378,0.926,0.133,0.982
				c0.341,0.038,0.674-0.016,1.016-0.016c0.645,0,0.645-1,0-1c-0.342,0-0.674,0.054-1.016,0.016
				c0.044,0.327,0.088,0.654,0.133,0.982c0.294-0.042,0.547-0.07,0.792-0.254C16.636,30.205,16.139,29.337,15.623,29.725
				L15.623,29.725z"/>
		</g>
	</g>
	<g display="inline">
		<g>
			<path d="M19.258,30.998c0.255,0.069,0.461,0.053,0.719,0c0.632-0.13,0.363-1.094-0.266-0.965c-0.063,0-0.125,0-0.188,0
				C18.9,29.863,18.637,30.828,19.258,30.998L19.258,30.998z"/>
		</g>
	</g>
	<g display="inline">
		<g>
			<path d="M22.125,26.375c0.039,0.368-0.215,0.667-0.363,0.99c-0.139,0.304-0.186,0.615-0.184,0.947c0.004,0.645,1.004,0.646,1,0
				c-0.004-0.711,0.624-1.207,0.547-1.938C23.059,25.74,22.058,25.734,22.125,26.375L22.125,26.375z"/>
		</g>
	</g>
	<g display="inline">
		<g>
			<path d="M28.438,20.031c0.226,1.691-1.314,2.755-2.486,3.615c-1.091,0.8-2.233,1.447-3.227,2.375
				c-0.473,0.441,0.236,1.146,0.707,0.707c1.927-1.8,6.453-3.35,6.006-6.697C29.354,19.401,28.353,19.394,28.438,20.031
				L28.438,20.031z"/>
		</g>
	</g>
	<g display="inline">
		<g>
			<path d="M7.998,24.057c1.322,0.76,2.687,1.449,3.821,2.484c0.475,0.434,1.184-0.271,0.707-0.707
				c-0.613-0.56-1.189-1.038-1.933-1.443c-0.356-0.194-0.716-0.381-1.066-0.585c-0.18-0.105-0.298-0.283-0.475-0.383
				c-0.172-0.097-0.384-0.135-0.549-0.229C7.942,22.871,7.439,23.735,7.998,24.057L7.998,24.057z"/>
		</g>
	</g>
	<g display="inline">
		<g>
			<path d="M11.367,8.456c-4.251,1.02-5.618,6.004-5.721,9.794c-0.018,0.646,0.982,0.644,1,0c0.09-3.309,1.243-7.932,4.987-8.831
				C12.26,9.269,11.994,8.305,11.367,8.456L11.367,8.456z"/>
		</g>
	</g>
	<g display="inline">
		<g>
			<path d="M5.873,18.095c-0.39,0.944-0.092,2.289,0.22,3.215c0.344,1.02,1.096,1.897,1.967,2.495
				c0.534,0.366,1.033-0.501,0.505-0.863c-1.258-0.862-2.36-3.05-1.729-4.581C7.083,17.764,6.115,17.507,5.873,18.095L5.873,18.095z
				"/>
		</g>
	</g>
	<g display="inline">
		<g>
			<path d="M12.242,20.357c0.185,0.048,0.097,0.482,0.129,0.669c0.06,0.351,0.264,0.627,0.584,0.78
				c0.579,0.277,1.086-0.585,0.505-0.863c-0.219-0.105-0.13-0.581-0.166-0.803c-0.065-0.402-0.421-0.652-0.788-0.748
				C11.883,19.23,11.618,20.195,12.242,20.357L12.242,20.357z"/>
		</g>
	</g>
	<g display="inline">
		<g>
			<path d="M26.438,11.104c1.83,2.18,2.268,5.721,1.829,8.451c-0.101,0.631,0.862,0.901,0.965,0.266
				c0.502-3.131,0.01-6.926-2.087-9.424C26.73,9.902,26.026,10.613,26.438,11.104L26.438,11.104z"/>
		</g>
	</g>
</g>
<g id="Layer_2" display="none">
	<g display="inline">
		<g>
			<g>
				<path fill="#171617" d="M17.137,6.35c0.645,0,0.645-1,0-1S16.492,6.35,17.137,6.35L17.137,6.35z"/>
			</g>
		</g>
		<g>
			<g>
				<path fill="#171617" d="M17.619,5.657c-0.648-1.931-2.046-3.187-3.557-4.491c-1.488-1.284-3.125-1.151-4.936-0.79
					C4.06,1.389,2.021,5.308,0.896,9.905c-1.245,5.088,0.024,9.196,4.063,12.546c4.246,3.522,9.762,6.445,11.621,12.033
					c0.202,0.608,1.168,0.348,0.964-0.266c-1.079-3.245-3.528-5.765-6.022-8.003c-2.868-2.573-6.488-4.299-8.741-7.508
					c-2.687-3.825-1.388-11.367,1.72-14.73c1.465-1.585,3.556-2.37,5.613-2.781c2.758-0.55,5.703,2.229,6.541,4.726
					C16.859,6.531,17.825,6.27,17.619,5.657L17.619,5.657z"/>
			</g>
		</g>
		<g>
			<g>
				<path fill="#171617" d="M17.665,5.923c0.837-2.495,3.823-5.313,6.557-4.798c2.547,0.479,4.973,1.78,6.395,3.965
					c2.51,3.857,3.068,9.378,1.14,13.538c-1.535,3.313-5.754,4.899-8.434,7.134c-2.714,2.263-5.406,5.041-6.541,8.457
					c-0.204,0.613,0.762,0.875,0.964,0.266c1.892-5.694,7.404-8.479,11.792-11.93c3.623-2.85,4.936-7.146,4.192-11.663
					c-0.804-4.882-3.066-8.668-7.823-10.287c-2.087-0.71-3.728-0.887-5.548,0.484c-1.587,1.194-3.02,2.666-3.658,4.569
					C16.495,6.271,17.461,6.532,17.665,5.923L17.665,5.923z"/>
			</g>
		</g>
		<g>
			<g>
				<path fill="#171617" d="M10.132,3.085c0.831,0.107,1.616,0.354,2.356,0.741c0.868,0.368,1.916-0.419,1.368-1.368
					c-0.42-0.729-0.468-0.793-1.118-1.344c-0.812-0.688-2.265,0.224-1.57,1.212c1.01,1.437,1.911,2.749,3.425,3.666
					c0.779,0.472,1.664-0.298,1.469-1.129c-0.253-1.081-0.286-1.12-1.099-1.885c-0.81-0.763-2.19,0.223-1.57,1.212
					c1.202,1.917,2.481,4.416,4.976,3.125C18.8,7.092,19.247,6.1,19.366,5.903c3.559-5.863,8.29-1.972,10.445,1.314
					c3.225,4.917,0.821,9.064-2.493,12.777c-0.729,0.816,0.214,2.21,1.212,1.57c0.28-0.18,0.562-0.359,0.843-0.54
					c0.917-0.588,0.34-2.223-0.771-1.827c-1.353,0.48-2.143,1.097-2.943,2.261c-0.535,0.778,0.341,1.635,1.129,1.469
					c0.381-0.08,0.762-0.16,1.143-0.24c-0.257-0.608-0.514-1.218-0.771-1.827c-2.663,1.282-4.896,3.825-7.07,5.83
					c-1.894,1.746-3.776,3.175-4.068,5.856c0.667,0,1.333,0,2,0c0.343-4.316-4.841-8.009-7.749-10.51
					c-0.972-0.837-2.394,0.571-1.414,1.414c2.385,2.053,7.438,5.628,7.163,9.096c-0.103,1.298,1.863,1.259,2,0
					c0.327-3.004,7.604-8.734,10.148-9.96c1.071-0.516,0.285-2.05-0.771-1.827c-0.381,0.08-0.762,0.16-1.143,0.24
					c0.376,0.489,0.753,0.979,1.129,1.469c0.583-0.447,1.166-0.895,1.748-1.343c-0.257-0.608-0.514-1.218-0.771-1.827
					c-0.281,0.18-0.562,0.359-0.843,0.54c0.404,0.523,0.808,1.047,1.212,1.57c4.348-4.871,6.787-10.64,1.925-16.508
					c-1.845-2.226-4.95-4.796-8.142-3.738c-1.721,0.571-2.764,1.184-4.036,2.476c-1.573,1.597-2.13,1.501-3.36-0.459
					c-0.523,0.404-1.047,0.808-1.57,1.212c0.195,0.334,0.39,0.668,0.584,1.002c0.49-0.376,0.979-0.752,1.469-1.129
					c-1.082-0.833-1.984-1.815-2.708-2.949c-0.523,0.404-1.047,0.808-1.57,1.212c0.269,0.313,0.537,0.626,0.806,0.94
					c0.456-0.456,0.912-0.912,1.368-1.368C11.82,1.389,11.331,0.89,9.601,1.157C8.329,1.353,8.871,3.28,10.132,3.085L10.132,3.085z"
					/>
			</g>
		</g>
		<g>
			<g>
				<path fill="#171617" d="M9.26,23.626c1.29,0,1.29-2,0-2S7.971,23.626,9.26,23.626L9.26,23.626z"/>
			</g>
		</g>
		<g>
			<g>
				<path fill="#171617" d="M30.269,14.328c0.015,0.731,0.163,1.544-0.226,2.203c0.609,0.257,1.219,0.514,1.827,0.771
					c0.166-0.452,0.362-0.887,0.56-1.326c0.52-1.153-1.126-2.172-1.727-1.01c-0.689,1.334-1.021,3.785-2.466,4.512
					c-1.152,0.579-0.14,2.305,1.01,1.727c1.927-0.969,2.283-3.487,3.183-5.229c-0.575-0.336-1.151-0.673-1.727-1.01
					c-0.269,0.597-0.536,1.189-0.761,1.804c-0.4,1.089,1.266,1.722,1.827,0.771c0.597-1.01,0.522-2.08,0.499-3.212
					C32.242,13.04,30.242,13.037,30.269,14.328L30.269,14.328z"/>
			</g>
		</g>
		<g>
			<g>
				<path fill="#171617" d="M9.62,1.903C7.717,1.948,7.051,2.707,5.666,3.939c0.569,0.236,1.138,0.471,1.707,0.707
					C7.304,3.586,7.058,4.831,7.56,4.57c0.864-0.448,0.866-0.413,1.445-1.141c0.786-0.987-0.456-2.323-1.414-1.414
					C6.222,3.312,4.739,3.773,3.619,5.343c-1.285,1.8-1.934,4.966-2.213,7.104c-0.73,5.583,3.202,7.6,6.847,10.886
					c0.955,0.861,2.374-0.549,1.414-1.414C6.374,18.95,2.448,16.805,3.61,11.647c0.404-1.793,0.957-3.629,1.736-5.295
					c0.389-0.832,2.83-2.137,3.659-2.923C8.534,2.958,8.062,2.486,7.591,2.015c-0.514,0.315-1.028,0.63-1.542,0.946
					C5.656,3.077,5.266,3.484,5.314,3.925c0.03,0.239,0.05,0.48,0.059,0.721C5.431,5.533,6.411,5.949,7.08,5.354
					C7.76,4.61,8.607,4.126,9.62,3.903C10.908,3.872,10.911,1.872,9.62,1.903L9.62,1.903z"/>
			</g>
		</g>
		<g>
			<g>
				<path fill="#171617" d="M9.536,4.729c1.974,1.389,3.57,3.186,5.533,4.63c0.168-0.621,0.336-1.242,0.505-1.863
					c-1.513,0.016-3.397-1.397-4.351-2.497C10.554,4.23,9.551,2.803,8.287,3.278C5.065,4.489,3.851,7.814,3.449,10.96
					c-0.143,1.116,1.782,1.374,1.964,0.266c0.27-1.641,1.661-6.168,4.048-3.94c1.496,1.396,2.87,1.861,4.763,2.655
					c0.088-0.655,0.177-1.31,0.266-1.964c-2.266,0.229-4.709-2.625-6.912-1.838c-1.875,0.67-1.305,2.319-2.394,3.574
					c-0.841,0.969,0.567,2.39,1.414,1.414c0.61-0.703,0.978-3.155,1.913-2.99c2.181,0.386,3.612,2.079,5.979,1.84
					c1.165-0.118,1.311-1.526,0.266-1.964c-1.015-0.426-2.284-0.688-3.145-1.401c-0.465-0.386-0.819-0.885-1.311-1.244
					c-0.999-0.73-1.96-0.797-3.129-0.46c-2.358,0.679-3.336,3.662-3.687,5.788c0.655,0.088,1.31,0.177,1.964,0.266
					c0.185-1.448,0.553-2.765,1.326-4.011c0.194-0.313,1.62-1.996,2.141-1.593c0.465,0.359,0.806,0.957,1.189,1.399
					c1.208,1.391,3.608,2.759,5.468,2.74c1.065-0.011,1.271-1.3,0.505-1.863c-1.967-1.448-3.539-3.228-5.533-4.63
					C9.488,2.258,8.49,3.993,9.536,4.729L9.536,4.729z"/>
			</g>
		</g>
		<g>
			<g>
				<path fill="#171617" d="M22.772,7.641c1.172-1.6,2.77,0.832,3.419,1.804c2.47,3.696-0.73,7.523-3.528,9.625
					c-3.32,2.494-5.67,4.415-7.214,8.377c-0.938,2.406,2.931,3.438,3.857,1.063c1.777-4.56,6.236-5.637,9.016-9.259
					c2.425-3.159,3.229-6.287,2.093-10.122c-0.709-2.393-3.382-5.699-5.881-6.467c-2.723-0.836-3.771,0.99-5.214,2.961
					C17.792,7.707,21.266,9.699,22.772,7.641L22.772,7.641z"/>
			</g>
		</g>
		<g>
			<g>
				<path fill="#171617" d="M22.587,6.81c-1.388,1.733-3.823,0.989-5.681,0.918c-2.261-0.086-4.599-0.322-6.855-0.211
					c-3.007,0.148-5.984,2.585-7.371,5.127c-3.723,6.828,7.403,11.422,10.828,14.913c0.634,0.646,1.646,0.755,2.423,0.313
					c1.491-0.848,3.269-3.067,2.568-4.966c-0.963-2.609-3.059-2.814-5.335-3.958c-0.336,1.242-0.673,2.484-1.009,3.727
					c3.731-0.313,7.449,0.046,11.185,0c1.414-0.018,2.122-1.256,1.929-2.531c-0.758-4.99-12.058-2.323-15.243-2.841
					c-0.297-0.048-1.662-5.625-1.435-1.379c0.072,1.34,1.334,2.424,2.543,2.816c1.66,0.537,2.61,0.339,3.932-0.747
					c1.458-1.198,0.301-3.607,0.882-5.084c-0.643,0.489-1.286,0.979-1.929,1.468c0.151-0.015,0.394,2.362,0.678,2.846
					c0.649,1.108,1.757,1.249,2.879,1.532c1.054,0.266,2.17-0.329,2.46-1.397c0.163-0.6,0.212-1.227,0.27-1.844
					c0.031-0.42,0.066-0.839,0.105-1.259c0.032-0.22,0.065-0.439,0.098-0.659c-2.035-0.203-2.561,0.433-1.576,1.906
					c0.261,1.994,1.218,3.628,3.471,3.628c3.439,0,5.519-6.235,3.637-8.614C25.575,9.925,24.757,9.901,24.095,10
					c-0.188,0.028-0.376,0.056-0.564,0.084c-2.545,0.378-1.459,4.232,1.063,3.857c0.188-0.028,0.377-0.056,0.565-0.084
					c-0.648-0.171-1.297-0.343-1.945-0.515c-0.663-0.837-0.649,0.408-0.894,0.958c0.51,0.465,0.651,0.381,0.423-0.25
					c-0.08-0.421-0.215-0.824-0.401-1.208c-0.676-1.276-1.592-2.741-3.223-2.741c-3.074,0-2.428,4.313-2.938,6.19
					c0.82-0.465,1.64-0.931,2.46-1.397c-0.744-0.188-0.438,0.563-0.381-0.489c0.039-0.713-0.038-1.569-0.408-2.2
					c-0.792-1.352-2.35-1.98-3.832-1.832c-0.975,0.098-1.572,0.56-1.929,1.468c-0.341,0.87-0.378,1.219-0.312,2.155
					c0.118,1.67,0.922,1.267,1.076-0.105c0.172-1.524-0.24-2.456-1.495-3.306c-3.257-2.206-6.041,3.722-5.807,6.082
					c0.334,3.368,2.558,4.562,5.59,4.727c1.783,0.097,3.587-0.027,5.37-0.073c1.04-0.027,2.078-0.028,3.118-0.003
					c0.674,0.018,1.869,0.479,1.779-0.114c0.643-0.844,1.286-1.688,1.929-2.531c-3.736,0.046-7.454-0.313-11.185,0
					c-1.819,0.152-2.936,2.758-1.009,3.727c0.22,0.111,3.579,1.556,2.767,2.018c0.808,0.104,1.616,0.208,2.423,0.313
					c-1.58-1.61-3.651-2.563-5.437-3.925c-1.625-1.239-3.062-2.493-4.201-4.208c-2.001-3.013,2.43-5.034,4.42-5.132
					c4.427-0.218,11.015,2.275,14.297-1.826C27.01,7.646,24.199,4.796,22.587,6.81L22.587,6.81z"/>
			</g>
		</g>
	</g>
	<g display="inline">
		<g>
			<path fill="#171617" d="M8.466,4.762c2.107,3.644,4.132,6.168,8.661,6.227c1.831,0.023,3.919-1.309,5.544-1.974
				c5-2.044,4.383,3.324,4.266,5.985c-0.102,2.293,2.741,3.156,4.268,1.768c0.229-0.208,0.459-0.417,0.688-0.625
				c-1.01,0.13-2.02,0.261-3.029,0.391c-0.642-0.957-1.075-0.908-1.301,0.147c-0.456,0.838-3.264,1.912-4.324,2.411
				c-0.532,0.409-1.063,0.821-1.592,1.234c-0.393,0.311-0.786,0.622-1.179,0.934c-0.983,0.49-0.758,1.143,0.675,1.957
				c1.133-1.163,2.646-1.904,3.578-3.268c1.062-1.55,4.149-3.651,4.44-5.722c0.279-1.996,0.249-7.354-3.133-6.966
				c-2.372,0.271-4.476,2.297-5.562,4.353c0.94-0.383,1.882-0.766,2.823-1.149c-0.939-0.127-2.511-2.27-3.75-2.734
				c-1.876-0.704-3.253-0.438-3.856-2.973c-0.269-1.133-0.716-1.775-1.551-2.555c-5.105-4.77-9.569,1.61-11.792,5.536
				C3.864,8.38,5.388,9.022,6.911,9.665c0.041-0.238,0.082-0.477,0.123-0.715C5.511,8.307,3.987,7.665,2.464,7.023
				C1.578,9.367,1,11.089,1.25,13.75c0.299,3.182,5.302,3.211,5,0c-0.196-2.085,0.32-3.507,1.036-5.398
				c1-2.643-3.422-4.508-4.569-1.926C2.42,7.092,2.189,7.61,2.089,8.335c-0.362,2.625,3.058,4.596,4.569,1.926
				C7.204,9.3,10.217,3.37,11.089,7.04c0.393,1.653,1.959,4.031,3.598,4.747c0.458,0.2,3.565,0.79,3.574,0.797
				c1.261,1.049,1.939,2.464,3.698,2.703c1.093,0.148,2.253-0.068,2.823-1.149c0.421-0.795,2.834-2.058,1.245-1.876
				c-0.72-0.413-1.439-0.826-2.158-1.238c1.843,2.477-6.297,8.45-7.779,10.466c-1.545,2.102,1.115,7.02,3.886,5.923
				c1.588-0.629,2.841-1.631,4.165-2.706c2.227-1.808,4.936-2.422,7-4.438c2.096-2.045,3.295-6.448,0.244-8.051
				c-1.038-0.545-2.164-0.396-3.029,0.391c-0.229,0.208-0.459,0.417-0.688,0.625c1.423,0.589,2.845,1.178,4.268,1.768
				c0.194-4.4,0.34-8.562-4.065-10.987c-5.465-3.007-10.938,5.4-15.088-1.775C11.17-0.551,6.849,1.965,8.466,4.762L8.466,4.762z"/>
		</g>
	</g>
	<g display="inline">
		<g>
			<path fill="#171617" d="M8.688,1.563c-2.51-0.016-5.101,1.89-5.848,4.273c-0.408,1.3,0.468,2.724,1.746,3.075
				c1.349,0.371,2.667-0.447,3.075-1.746c0.081-0.248,0.056-0.192-0.076,0.167C7.655,7.193,7.999,6.803,7.6,7.274
				c0.083-0.093,0.17-0.182,0.261-0.267c0.453-0.444-0.427,0.28,0.098-0.091C8.11,6.809,8.996,6.405,8.375,6.645
				c0.111-0.04,0.224-0.074,0.338-0.103c0.56-0.153-0.565,0.017-0.025,0.02c1.363,0.009,2.5-1.144,2.5-2.5
				C11.188,2.693,10.05,1.571,8.688,1.563L8.688,1.563z"/>
		</g>
	</g>
	<g display="inline">
		<g>
			<path fill="#171617" d="M3.357,12.107c-0.812,0.638-2.053,1.255-2.217,2.427c-0.22,1.574,0.088,2.795,1.104,4.032
				c1.855,2.259,3.857,4.146,6.245,5.842c2.635,1.872,5.128-2.467,2.523-4.316c-1.043-0.741-2.023-1.517-2.932-2.42
				c-0.648-0.644-2.028-1.888-2.169-2.774c0,0.443,0,0.886,0,1.329c-0.389,0.426-0.351,0.457,0.113,0.092
				c0.292-0.223,0.582-0.449,0.869-0.677c1.074-0.843,0.877-2.658,0-3.535C5.844,11.058,4.428,11.266,3.357,12.107L3.357,12.107z"/>
		</g>
	</g>
	<g display="inline">
		<g>
			<path fill="#171617" d="M8.027,22.04c0.546,3.371,4.518,5.297,6.377,7.909c0.788,1.108,2.166,1.632,3.42,0.896
				c1.097-0.642,1.688-2.308,0.896-3.42c-0.994-1.398-2.134-2.613-3.364-3.805c-0.838-0.813-2.314-1.71-2.509-2.911
				c-0.218-1.347-1.87-2.077-3.075-1.746C8.354,19.354,7.809,20.695,8.027,22.04L8.027,22.04z"/>
		</g>
	</g>
	<g display="inline">
		<g>
			<path fill="#171617" d="M25.585,20.536c-0.075-0.026-0.858-0.573-0.523-0.223c-0.412-0.432-0.042-0.036,0.042,0.104
				c0.317,0.527-0.138-0.479,0.021,0.047c-0.105-0.447-0.047-0.885,0.175-1.313c0.253-0.312,0.281-0.37,0.085-0.174
				c0.472-0.435,0.043-0.053-0.089,0.03c-0.219,0.139-0.448,0.26-0.676,0.382c-0.316,0.169-0.641,0.324-0.944,0.516
				c-1.151,0.724-1.603,2.216-0.896,3.42c0.671,1.146,2.266,1.623,3.42,0.896c1.456-0.915,3.098-1.485,3.733-3.256
				c0.742-2.065-1.141-4.602-3.018-5.25c-1.289-0.445-2.731,0.496-3.076,1.746C23.46,18.838,24.299,20.091,25.585,20.536
				L25.585,20.536z"/>
		</g>
	</g>
</g>
<g id="Layer_3">
	<ellipse fill="none" stroke="#171617" stroke-miterlimit="10" cx="17.5" cy="17.577" rx="16.678" ry="16.78"/>
	<g>
		<g>
			<path fill="#171617" d="M4.195,8.544c0.906-0.335,1.743-0.803,2.604-1.238c0.963-0.486,2.036-0.732,3.016-1.188
				c0.584-0.271,0.076-1.133-0.505-0.863c-0.862,0.4-1.788,0.629-2.652,1.022C5.739,6.696,4.878,7.229,3.93,7.581
				C3.331,7.803,3.589,8.77,4.195,8.544L4.195,8.544z"/>
		</g>
	</g>
	<g>
		<g>
			<path fill="#171617" d="M10.041,5.916c1.03-1.278,2.123-2.501,3.188-3.75c0.416-0.488-0.288-1.199-0.707-0.707
				c-1.064,1.249-2.158,2.472-3.188,3.75C8.934,5.706,9.636,6.418,10.041,5.916L10.041,5.916z"/>
		</g>
	</g>
	<g>
		<g>
			<path fill="#171617" d="M11.367,2.018c-1.048,0.332-1.648,1.365-2.313,2.17c-0.992,1.2-2.726,1.354-3.994,2.193
				C4.604,6.683,4.882,7.475,5.445,7.294c2.063-0.659,3.461-2.419,5.12-3.675c0.418-0.316,0.198-1.106-0.385-0.914
				C9.698,2.864,9.398,3.1,9.069,3.485C8.471,4.186,7.75,4.405,6.935,4.756C6.344,5.01,6.854,5.872,7.44,5.619
				c0.547-0.236,1.108-0.388,1.625-0.688c0.556-0.322,0.734-1.049,1.38-1.262c-0.128-0.304-0.257-0.609-0.385-0.914
				C8.496,3.94,7.118,5.711,5.18,6.331c0.128,0.304,0.257,0.609,0.385,0.914c1.081-0.715,2.58-0.88,3.564-1.72
				c0.819-0.699,1.45-2.208,2.503-2.542C12.245,2.788,11.983,1.822,11.367,2.018L11.367,2.018z"/>
		</g>
	</g>
	<g>
		<g>
			<path fill="#171617" d="M6.873,4.881C6.487,5.057,6.17,5.325,5.896,5.646C5.48,6.134,6.185,6.845,6.604,6.354
				C6.829,6.09,7.06,5.889,7.377,5.744C7.963,5.477,7.455,4.615,6.873,4.881L6.873,4.881z"/>
		</g>
	</g>
	<g>
		<g>
			<path fill="#171617" d="M25.938,3.125c-1.215,0.021-2.409,0.319-3.625,0.313c-0.645-0.003-0.645,0.997,0,1
				c1.216,0.007,2.41-0.291,3.625-0.313C26.582,4.114,26.583,3.114,25.938,3.125L25.938,3.125z"/>
		</g>
	</g>
	<g>
		<g>
			<path fill="#171617" d="M21.83,4.07c0.4,1.826,0.561,3.702,0.795,5.555c0.08,0.631,1.081,0.639,1,0
				c-0.245-1.939-0.411-3.908-0.83-5.82C22.656,3.175,21.692,3.442,21.83,4.07L21.83,4.07z"/>
		</g>
	</g>
	<g>
		<g>
			<path fill="#171617" d="M22.992,10.232c2.253,0.391,4.03,1.933,6.125,2.75c0.602,0.235,0.859-0.732,0.266-0.964
				c-2.104-0.821-3.853-2.355-6.125-2.75C22.627,9.158,22.357,10.122,22.992,10.232L22.992,10.232z"/>
		</g>
	</g>
	<g>
		<g>
			<path fill="#171617" d="M29.752,13.057c1-0.626,1.752-1.544,2.688-2.25c0.509-0.383,0.011-1.252-0.504-0.863
				c-0.933,0.703-1.696,1.628-2.688,2.25C28.703,12.535,29.204,13.4,29.752,13.057L29.752,13.057z"/>
		</g>
	</g>
	<g>
		<g>
			<path fill="#171617" d="M26.979,4.209c-1.001-1.084-2.884-0.264-4.104-0.146c-0.636,0.062-0.642,1.062,0,1
				c0.519-0.05,1.027-0.167,1.539-0.26c0.506-0.091,1.455-0.323,1.857,0.113C26.71,5.391,27.415,4.682,26.979,4.209L26.979,4.209z"
				/>
		</g>
	</g>
	<g>
		<g>
			<path fill="#171617" d="M22.25,4.688C22.189,6.264,23.058,7.68,23,9.25c-0.023,0.645,0.977,0.643,1,0
				c0.059-1.578-0.811-2.996-0.75-4.563C23.274,4.042,22.274,4.045,22.25,4.688L22.25,4.688z"/>
		</g>
	</g>
	<g>
		<g>
			<path fill="#171617" d="M22.893,5.008c0.29,1.421,0.367,2.868,0.545,4.305c0.078,0.631,1.079,0.639,1,0
				c-0.189-1.525-0.272-3.062-0.58-4.57C23.729,4.11,22.765,4.378,22.893,5.008L22.893,5.008z"/>
		</g>
	</g>
	<g>
		<g>
			<path fill="#171617" d="M24.117,9.982c0.872,0.124,1.472,0.686,2.193,1.137c0.87,0.544,1.88,0.819,2.75,1.375
				c0.545,0.349,1.046-0.517,0.504-0.863c-0.868-0.556-1.845-0.888-2.75-1.375c-0.84-0.452-1.446-1.098-2.432-1.238
				C23.753,8.928,23.48,9.892,24.117,9.982L24.117,9.982z"/>
		</g>
	</g>
	<g>
		<g>
			<path fill="#171617" d="M23.811,8.869c1.801,1.325,3.577,2.754,5.744,3.425c0.617,0.192,0.88-0.774,0.266-0.964
				c-2.072-0.643-3.783-2.058-5.506-3.325C23.795,7.623,23.297,8.492,23.811,8.869L23.811,8.869z"/>
		</g>
	</g>
	<g>
		<g>
			<path fill="#171617" d="M31.396,9.521c-0.606,0.647-1.331,1.165-1.938,1.813c-0.44,0.47,0.266,1.179,0.707,0.707
				c0.606-0.647,1.331-1.165,1.938-1.813C32.544,9.758,31.838,9.05,31.396,9.521L31.396,9.521z"/>
		</g>
	</g>
	<g>
		<g>
			<path fill="#171617" d="M30.943,9.06c-0.533,0.695-1.19,1.276-1.859,1.836c-0.495,0.415,0.216,1.118,0.707,0.707
				c0.742-0.621,1.426-1.27,2.016-2.039C32.199,9.053,31.33,8.556,30.943,9.06L30.943,9.06z"/>
		</g>
	</g>
	<g>
		<g>
			<path fill="#171617" d="M26.873,5.119c0.739,0.343,1.217,1.06,1.73,1.665c0.64,0.754,1.406,1.396,1.965,2.218
				c0.36,0.53,1.227,0.03,0.863-0.505c-0.563-0.827-1.285-1.532-1.974-2.253c-0.667-0.7-1.173-1.567-2.081-1.988
				C26.796,3.986,26.288,4.848,26.873,5.119L26.873,5.119z"/>
		</g>
	</g>
	<g>
		<g>
			<path fill="#171617" d="M25.311,4.994c2.062,1.162,3.558,2.905,5.086,4.672c0.423,0.489,1.127-0.222,0.707-0.707
				c-1.584-1.832-3.153-3.625-5.289-4.828C25.252,3.814,24.748,4.678,25.311,4.994L25.311,4.994z"/>
		</g>
	</g>
	<g>
		<g>
			<path fill="#171617" d="M25.305,4.206c-0.614,0.202-1.219,0.407-1.807,0.675c-0.315,0.144-0.29,0.562-0.102,0.785
				c0.757,0.896,1.81,0.477,2.668-0.047c0.501-0.305,0.162-1.022-0.385-0.914c-0.877,0.173-1.482,0.988-1.986,1.667
				c-0.196,0.265,0.014,0.655,0.299,0.734c0.99,0.275,1.749-0.627,2.51-1.113c-0.244-0.188-0.489-0.376-0.734-0.564
				c-0.235,0.933-2.204,1.305-1.877,2.445c0.196,0.685,0.836,1.062,1.354,1.496c0.788,0.659,1.604,1.408,2.564,1.804
				c1.348,0.555,2.795,0.028,3.008-1.595c0.08-0.618-0.394-1.13-0.869-1.47c-1.14-0.814-1.897-1.763-2.845-2.774
				c-0.441-0.472-1.147,0.237-0.707,0.707c0.824,0.88,1.466,1.854,2.477,2.539c0.783,0.531,1.038,0.793,0.529,1.627
				c-0.489,0.804-2.013-0.412-2.426-0.711c-0.521-0.378-1-0.818-1.498-1.225c-0.572-0.467-0.635-0.617-0.023-1.02
				c0.599-0.395,1.097-0.839,1.277-1.557c0.103-0.41-0.353-0.808-0.734-0.564c-0.395,0.251-1.233,1.152-1.74,1.012
				c0.1,0.245,0.199,0.489,0.299,0.734c0.345-0.464,0.789-1.089,1.389-1.208c-0.128-0.304-0.257-0.609-0.385-0.914
				c-0.386,0.234-1.025,0.714-1.457,0.203c-0.034,0.262-0.067,0.523-0.102,0.785c0.51-0.232,1.038-0.4,1.568-0.575
				C26.18,4.969,25.919,4.003,25.305,4.206L25.305,4.206z"/>
		</g>
	</g>
	<g>
		<g>
			<path fill="#171617" d="M26.334,5.834C25.819,6.364,25.481,7,25,7.541c-0.256,0.287-0.366,0.622-0.104,0.949
				c0.919,1.141,2.38,1.817,3.602,2.567c0.551,0.339,1.053-0.526,0.504-0.863c-0.937-0.576-1.926-1.083-2.766-1.8
				C26.045,8.23,25.863,8.05,25.68,7.877c0.225,0.211-0.098,0.556,0.226,0.135c0.383-0.498,0.691-1.013,1.136-1.471
				C27.49,6.078,26.784,5.371,26.334,5.834L26.334,5.834z"/>
		</g>
	</g>
	<g>
		<g>
			<path fill="#171617" d="M29.625,10.5c-0.013-0.583,0.269-1.124-0.074-1.654c-0.267-0.412-0.683-0.728-1.011-1.088
				c-0.405-0.446-0.768-0.927-1.187-1.361c-0.448-0.465-1.154,0.243-0.707,0.707c0.656,0.682,1.246,1.419,1.906,2.098
				c0.324,0.333,0.062,0.822,0.072,1.298C28.639,11.144,29.639,11.145,29.625,10.5L29.625,10.5z"/>
		</g>
	</g>
	<g>
		<g>
			<path fill="#171617" d="M26.125,6.75c0.036,0.708-0.803,1.753-0.164,2.364c0.563,0.538,1.56,0.809,2.281,1.055
				c0.36,0.124,0.721-0.264,0.615-0.615c-0.287-0.948-0.783-1.83-1.73-2.236c-0.31-0.134-0.615-0.031-0.734,0.299
				c-0.126,0.352-0.19,0.697-0.205,1.07c-0.025,0.645,0.975,0.643,1,0c0.012-0.286,0.073-0.537,0.17-0.805
				c-0.245,0.1-0.49,0.199-0.734,0.299c0.72,0.31,1.051,0.915,1.27,1.639c0.205-0.205,0.41-0.41,0.615-0.615
				c-0.594-0.203-1.189-0.438-1.739-0.743c-0.284-0.157-0.041,0.098-0.027,0.021c0.037-0.213,0.112-0.423,0.176-0.629
				c0.108-0.354,0.228-0.729,0.208-1.104C27.093,6.108,26.092,6.105,26.125,6.75L26.125,6.75z"/>
		</g>
	</g>
	<g>
		<g>
			<path fill="#171617" d="M14.938,14.5c0.645,0,0.645-1,0-1S14.292,14.5,14.938,14.5L14.938,14.5z"/>
		</g>
	</g>
	<g>
		<g>
			<path fill="#171617" d="M10.563,14c2.516,0.091,4.994,0.541,7.5,0.75c0.643,0.054,0.638-0.947,0-1
				c-2.506-0.209-4.984-0.659-7.5-0.75C9.917,12.977,9.919,13.977,10.563,14L10.563,14z"/>
		</g>
	</g>
	<g>
		<g>
			<path fill="#171617" d="M17.943,14.627c1.024,1.9,1.397,4.035,2.118,6.052c0.216,0.603,1.182,0.343,0.965-0.266
				c-0.751-2.102-1.152-4.312-2.22-6.292C18.501,13.555,17.637,14.06,17.943,14.627L17.943,14.627z"/>
		</g>
	</g>
	<g>
		<g>
			<path fill="#171617" d="M9.943,13.248c-1.243,1.978-2.148,4.133-3.25,6.188c-0.305,0.567,0.559,1.072,0.863,0.504
				c1.102-2.054,2.007-4.209,3.25-6.187C11.151,13.205,10.286,12.703,9.943,13.248L9.943,13.248z"/>
		</g>
	</g>
	<g>
		<g>
			<path fill="#171617" d="M6.992,20.545c2.415,0.896,3.301,3.938,5.217,5.496c0.496,0.403,1.208-0.3,0.707-0.707
				c-2.101-1.708-2.97-4.757-5.658-5.754C6.652,19.355,6.393,20.322,6.992,20.545L6.992,20.545z"/>
		</g>
	</g>
	<g>
		<g>
			<path fill="#171617" d="M19.896,20.254c0.284,0.52,0.289,1.147,0.555,1.686c0.285,0.579,1.147,0.072,0.863-0.504
				c-0.265-0.538-0.263-1.152-0.555-1.686C20.45,19.184,19.586,19.688,19.896,20.254L19.896,20.254z"/>
		</g>
	</g>
	<g>
		<g>
			<path fill="#171617" d="M13.07,26.17c2.804-0.821,5.334-2.297,8.063-3.313c0.599-0.224,0.34-1.19-0.266-0.965
				c-2.728,1.016-5.261,2.492-8.063,3.313C12.187,25.386,12.45,26.352,13.07,26.17L13.07,26.17z"/>
		</g>
	</g>
	<g>
		<g>
			<path fill="#171617" d="M6.818,20.252c1.606,2.103,3.001,4.419,5.179,5.992c0.524,0.378,1.022-0.489,0.505-0.863
				c-2.026-1.463-3.327-3.679-4.821-5.633C7.296,19.242,6.426,19.74,6.818,20.252L6.818,20.252z"/>
		</g>
	</g>
	<g>
		<g>
			<path fill="#171617" d="M10.568,13.685c-0.7,1.142-1.145,2.419-1.858,3.55c-0.551,0.875-1.229,1.746-1.21,2.827
				c0.005,0.308,0.318,0.592,0.633,0.482c0.891-0.311,1.244-1.132,1.572-1.957c0.569-1.431,1.246-2.824,2.039-4.148
				c0.333-0.555-0.533-1.057-0.863-0.505c-0.624,1.041-1.211,2.149-1.712,3.254c-0.31,0.686-0.488,2.107-1.302,2.391
				c0.211,0.161,0.422,0.321,0.633,0.482c-0.018-1.036,0.876-1.957,1.369-2.81c0.574-0.993,0.961-2.08,1.563-3.063
				C11.77,13.638,10.904,13.136,10.568,13.685L10.568,13.685z"/>
		</g>
	</g>
	<g>
		<g>
			<path fill="#171617" d="M11.518,13.867c-0.386,2.416-3.211,4.179-3.211,6.66c0,0.546,1.268,1.366,1.414,1.574
				c0.803,1.149,1.458,2.286,2.425,3.314c0.442,0.471,1.148-0.238,0.707-0.707c-0.899-0.956-1.585-2.001-2.269-3.111
				c-0.13-0.213-1.186-1.429-1.249-1.148c0.528-2.365,2.759-3.89,3.146-6.316C12.583,13.502,11.619,13.231,11.518,13.867
				L11.518,13.867z"/>
		</g>
	</g>
	<g>
		<g>
			<path fill="#171617" d="M12.188,14.625c1.469-0.039,2.886,0.207,4.327,0.459c1.943,0.34,2.074,2.071,2.315,3.673
				c0.067,0.446,0.357,1.006,0.54,1.412c0.769,1.719-0.097,1.737-1.601,2.33c-1.682,0.663-3.355,1.29-4.959,2.131
				c-0.571,0.299-0.066,1.162,0.505,0.863c2.437-1.277,5.082-2.067,7.562-3.25c0.184-0.087,0.309-0.372,0.23-0.564
				c-0.638-1.562-1.319-2.928-1.459-4.633c-0.067-0.827-0.246-1.533-0.834-2.132c-1.285-1.312-4.957-1.334-6.627-1.29
				C11.544,13.642,11.542,14.642,12.188,14.625L12.188,14.625z"/>
		</g>
	</g>
	<g>
		<g>
			<path fill="#171617" d="M11.938,15.313c2.12-0.262,6.099-0.237,6,2.75c0.284-0.118,0.569-0.236,0.854-0.354
				c-0.984-0.83-1.285-2.138-2.531-2.682c-1.217-0.531-3.3-0.499-4.518-0.009c-0.591,0.237-0.333,1.205,0.266,0.964
				c1.069-0.429,2.958-0.436,4.025,0.03c0.905,0.395,1.293,1.765,2.051,2.404c0.33,0.278,0.839,0.104,0.854-0.354
				c0.12-3.643-4.266-4.088-7-3.75C11.306,14.391,11.298,15.392,11.938,15.313L11.938,15.313z"/>
		</g>
	</g>
	<g>
		<g>
			<path fill="#171617" d="M11.881,15.435c-0.946,1.686-2.071,3.222-2.55,5.12c0.321,0,0.643,0,0.964,0
				c-0.042-0.229-0.083-0.458-0.125-0.688c-0.087-0.479-0.875-0.479-0.964,0c-0.292,1.576,1.34,2.277,2.034,3.499
				c1.044,1.838,1.456,1.658,3.331,0.991c0.533-0.19,0.442-0.95-0.133-0.982c-0.721-0.04-1.405,0.018-2.125,0.063
				c0,0.333,0,0.667,0,1c1.635-0.205,3.319-0.331,4.883-0.881c1.318-0.465,1.663-1.237,2.596-2.203
				c-0.284-0.118-0.569-0.235-0.854-0.354c-0.021,0.188-0.042,0.375-0.063,0.563c0.327-0.044,0.654-0.089,0.982-0.133
				c-0.237-1.183-0.388-2.38-0.625-3.563c-0.104-0.517-0.819-0.437-0.965,0c-0.041,0.125-0.083,0.25-0.125,0.375
				c-0.204,0.613,0.762,0.874,0.965,0.266c0.041-0.125,0.083-0.25,0.125-0.375c-0.321,0-0.644,0-0.965,0
				c0.237,1.183,0.388,2.38,0.625,3.563c0.12,0.598,0.925,0.386,0.982-0.133c0.021-0.188,0.042-0.375,0.063-0.563
				c0.05-0.446-0.572-0.645-0.854-0.354c-0.818,0.848-1.458,1.7-2.654,2.121c-1.295,0.456-2.764,0.5-4.117,0.67
				c-0.622,0.078-0.657,1.041,0,1c0.72-0.045,1.404-0.103,2.125-0.063c-0.044-0.327-0.088-0.654-0.133-0.982
				c-0.375,0.134-1.503,0.62-1.761,0.274c-0.247-0.33-0.409-0.748-0.612-1.106c-0.389-0.685-1.918-1.58-1.762-2.428
				c-0.321,0-0.643,0-0.964,0c0.042,0.229,0.083,0.458,0.125,0.688c0.09,0.498,0.848,0.459,0.964,0
				c0.458-1.813,1.548-3.273,2.45-4.88C13.06,15.377,12.196,14.873,11.881,15.435L11.881,15.435z"/>
		</g>
	</g>
	<g>
		<g>
			<path fill="#171617" d="M10.893,17.805c-0.208,0.685-0.967,1.127-1.521,1.514c-0.521,0.364-0.041,1.22,0.505,0.863
				c0.916-0.598,1.667-1.307,2.242-2.242c0.339-0.551-0.526-1.053-0.863-0.505c-0.485,0.789-1.111,1.379-1.883,1.883
				c0.168,0.288,0.336,0.575,0.505,0.863c0.79-0.552,1.685-1.142,1.979-2.111C12.045,17.452,11.08,17.189,10.893,17.805
				L10.893,17.805z"/>
		</g>
	</g>
	<g>
		<g>
			<path fill="#171617" d="M13.688,17.188c-0.025-0.487-0.088,0.114-0.484,0.262c-0.059,0.022,0.267,0.032,0.359,0.053
				c0.506,0.115,0.957,0.356,1.389,0.635c0.201,0.13,0.75,0.838,0.997,1.219c0.549,0.848,0.414,0.829-0.346,1.241
				c-1.276,0.693-2.599,0.631-3.139-0.904c0.202,0.573-0.322,0.752,0.278,0.383c0.242-0.148,0.492-0.264,0.761-0.349
				c-0.404-0.249-0.521-0.279-0.35-0.09c0.097,0.154,0.195,0.309,0.293,0.462c0.226,0.354,0.498,0.678,0.807,0.961
				c-0.078-0.605-0.156-1.212-0.235-1.817c0.333-0.477,0.396-0.179-0.118-0.377c-1.808-0.697-2.583,2.204-0.798,2.893
				c1.294,0.499,2.715,0.133,3.507-1.002c0.37-0.529,0.23-1.392-0.235-1.817c-0.47-0.431-0.749-1.025-1.167-1.508
				c-0.571-0.662-1.549-0.796-2.355-0.627c-1.354,0.283-2.758,1.201-3.297,2.485c-0.601,1.432,1.119,3.3,2.127,4.068
				c1.548,1.181,3.516,0.686,5.144-0.026c1.546-0.676,2.721-1.94,2.408-3.724c-0.265-1.511-1.387-3.078-2.63-3.962
				c-1.955-1.392-6.101-2.01-5.915,1.542C10.789,19.112,13.789,19.122,13.688,17.188L13.688,17.188z"/>
		</g>
	</g>
	<g>
		<g>
			<path fill="#171617" d="M0.568,18.314c0.479,0.94,1.063,1.833,1.45,2.818c0.232,0.594,1.2,0.336,0.964-0.266
				c-0.418-1.069-1.031-2.037-1.55-3.057C1.139,17.235,0.276,17.742,0.568,18.314L0.568,18.314z"/>
		</g>
	</g>
	<g>
		<g>
			<path fill="#171617" d="M1.969,21.188c0.053,0.982-0.192,1.956-0.135,2.938c0.037,0.641,1.037,0.645,1,0
				c-0.057-0.981,0.188-1.955,0.135-2.938C2.934,20.546,1.934,20.543,1.969,21.188L1.969,21.188z"/>
		</g>
	</g>
	<g>
		<g>
			<path fill="#171617" d="M1.131,20.939c0.051,0.125,0.096,0.252,0.137,0.381c0.205,0.607,1.171,0.347,0.964-0.266
				c-0.071-0.211-0.149-0.415-0.238-0.619C1.737,19.845,0.876,20.354,1.131,20.939L1.131,20.939z"/>
		</g>
	</g>
	<g>
		<g>
			<path fill="#171617" d="M11.959,31.021c-0.487,0.523-1.143,0.854-1.774,1.172c-0.576,0.29-0.069,1.152,0.505,0.863
				c0.707-0.355,1.431-0.742,1.976-1.328C13.105,31.258,12.399,30.549,11.959,31.021L11.959,31.021z"/>
		</g>
	</g>
	<g>
		<g>
			<path fill="#171617" d="M12.438,31.625c2.021,0.026,4.042-0.325,6.055-0.018c0.631,0.096,0.901-0.867,0.266-0.965
				c-2.111-0.322-4.201,0.01-6.32-0.018C11.792,30.616,11.793,31.616,12.438,31.625L12.438,31.625z"/>
		</g>
	</g>
	<g>
		<g>
			<path fill="#171617" d="M18.459,31.729c0.777,0.731,1.394,1.601,2.289,2.203c0.536,0.361,1.036-0.505,0.504-0.863
				c-0.814-0.549-1.377-1.38-2.086-2.047C18.697,30.58,17.988,31.286,18.459,31.729L18.459,31.729z"/>
		</g>
	</g>
	<g>
		<g>
			<path fill="#171617" d="M12.688,32.438c0.274-0.009,0.669,0.002,0.876-0.221c0.404-0.432,2.232,0.057,2.75,0.118
				c0.866,0.103,1.919-0.314,2.476,0.529c0.304,0.459,0.594,0.804,1.083,1.067c0.567,0.307,1.072-0.557,0.504-0.863
				c-0.634-0.343-0.846-1.046-1.398-1.484c-0.481-0.382-1.138-0.283-1.698-0.217c-0.938,0.111-1.947-0.175-2.885-0.235
				c-0.669-0.043-1.134,0.287-1.708,0.306C12.044,31.458,12.042,32.458,12.688,32.438L12.688,32.438z"/>
		</g>
	</g>
	<g>
		<g>
			<path fill="#171617" d="M20,33.063c-2.665-0.063-5.273,0.349-7.81-0.744c-0.586-0.252-1.096,0.609-0.505,0.863
				c2.724,1.173,5.437,0.812,8.315,0.881C20.646,34.078,20.644,33.078,20,33.063L20,33.063z"/>
		</g>
	</g>
	<g>
		<g>
			<path fill="#171617" d="M11.758,33.107c1.911-0.291,3.854-0.931,5.797-0.563c0.184,0.06,0.367,0.12,0.551,0.181
				c0.125-0.337,0.035-0.391-0.27-0.161c-0.312,0.109-0.655,0.117-0.981,0.149c-0.775,0.076-1.857,0.474-2.439-0.255
				c-0.074,0.278-0.147,0.557-0.221,0.836c1.217-0.288,2.435-0.343,3.68-0.295c0.646,0.024,0.643-0.976,0-1
				c-1.334-0.051-2.644,0.022-3.945,0.33c-0.4,0.095-0.441,0.561-0.221,0.836c0.741,0.928,1.938,0.72,2.985,0.57
				c0.643-0.093,2.384-0.085,2.413-1.084c0.03-1.006-1.483-1.127-2.194-1.205c-1.795-0.199-3.665,0.429-5.421,0.695
				C10.856,32.239,11.127,33.203,11.758,33.107L11.758,33.107z"/>
		</g>
	</g>
	<g>
		<g>
			<path fill="#171617" d="M28.229,23.104c1.238-1.04,2.044-2.504,3.336-3.484c0.507-0.384,0.01-1.253-0.504-0.863
				c-1.368,1.037-2.232,2.543-3.539,3.641C27.027,22.812,27.738,23.516,28.229,23.104L28.229,23.104z"/>
		</g>
	</g>
	<g>
		<g>
			<path fill="#171617" d="M27.188,23.063c0.03,1.58,0.413,3.11,0.598,4.674c0.074,0.633,1.075,0.64,1,0
				c-0.185-1.562-0.567-3.097-0.598-4.674C28.175,22.419,27.175,22.417,27.188,23.063L27.188,23.063z"/>
		</g>
	</g>
	<g>
		<g>
			<path fill="#171617" d="M28.472,28.236c0.679,0.048,1.345,0.217,2.028,0.181c0.642-0.033,0.645-1.033,0-1
				c-0.683,0.035-1.35-0.133-2.028-0.181C27.828,27.191,27.832,28.191,28.472,28.236L28.472,28.236z"/>
		</g>
	</g>
	<g>
		<g>
			<path fill="#171617" d="M31.021,19.604c0.697,0.664,1.335,1.385,1.922,2.148c0.387,0.504,1.256,0.008,0.863-0.504
				c-0.64-0.833-1.317-1.627-2.078-2.352C31.262,18.452,30.554,19.158,31.021,19.604L31.021,19.604z"/>
		</g>
	</g>
	<g>
		<g>
			<path fill="#171617" d="M30.637,19.558c-0.538,1.045-0.923,2.586-1.892,3.329c0.49,0.199,0.979,0.398,1.469,0.598
				c-0.002,0.054-0.004,0.106-0.007,0.16c0.952-0.874-0.466-2.284-1.414-1.414c-0.511,0.469-0.791,1.112-0.507,1.785
				c0.22,0.522,0.898,1.035,1.469,0.598c1.349-1.034,1.857-2.587,2.608-4.046C32.953,19.423,31.228,18.411,30.637,19.558
				L30.637,19.558z"/>
		</g>
	</g>
	<g>
		<g>
			<path fill="#171617" d="M29.099,21.484c-0.239,0.974-0.982,1.712-1.25,2.688c-0.285,1.036,0.056,2.196,0.438,3.156
				c0.47,1.184,2.405,0.668,1.928-0.531c-0.34-0.856-0.676-1.774-0.221-2.647c0.377-0.724,0.835-1.324,1.033-2.134
				C31.334,20.764,29.405,20.231,29.099,21.484L29.099,21.484z"/>
		</g>
	</g>
	<g>
		<g>
			<path fill="#171617" d="M31.23,21.77c0.843,1.031-1.078,3.585-1.594,4.476c-0.647,1.118,1.081,2.125,1.727,1.01
				c1.143-1.973,3.035-4.753,1.281-6.899C31.828,19.356,30.422,20.78,31.23,21.77L31.23,21.77z"/>
		</g>
	</g>
	<g>
		<g>
			<path fill="#171617" d="M30.411,21.984c-0.279,1.307-1.146,2.381-1.438,3.688c-0.28,1.256,1.647,1.79,1.928,0.531
				c0.291-1.301,1.158-2.375,1.438-3.688C32.607,21.258,30.68,20.723,30.411,21.984L30.411,21.984z"/>
		</g>
	</g>
	<g>
		<g>
			<path fill="#171617" d="M29.505,22.949c-0.166-0.073-0.109-0.033-0.235-0.156c-0.922-0.902-2.337,0.511-1.414,1.414
				c0.191,0.188,0.395,0.36,0.64,0.469c0.498,0.222,1.07,0.15,1.368-0.358C30.115,23.887,30.003,23.17,29.505,22.949L29.505,22.949z
				"/>
		</g>
	</g>
	<g>
		<g>
			<path fill="#171617" d="M1.065,20.164c0.132,0.698,0.309,1.386,0.469,2.078c0.145,0.628,1.109,0.362,0.964-0.266
				c-0.159-0.692-0.336-1.38-0.469-2.078C1.909,19.266,0.945,19.534,1.065,20.164L1.065,20.164z"/>
		</g>
	</g>
	<g>
		<g>
			<path fill="#171617" d="M26.131,8.065c0.489,0.664,1.214,0.962,1.867,1.429c0.525,0.376,1.024-0.492,0.504-0.863
				c-0.486-0.348-1.144-0.577-1.508-1.071C26.616,7.047,25.747,7.545,26.131,8.065L26.131,8.065z"/>
		</g>
	</g>
	<g>
		<g>
			<path fill="#171617" d="M11.855,30.646c-0.521,0.57-1.253,0.88-1.878,1.317c-0.524,0.367-0.025,1.234,0.505,0.863
				c0.695-0.487,1.5-0.837,2.08-1.474C12.996,30.878,12.291,30.169,11.855,30.646L11.855,30.646z"/>
		</g>
	</g>
	<g>
		<g>
			<path fill="#171617" d="M12.375,31.563c0.736-0.07,1.471-0.007,2.208,0c0.645,0.006,0.645-0.994,0-1
				c-0.737-0.007-1.472-0.07-2.208,0C11.739,30.623,11.733,31.624,12.375,31.563L12.375,31.563z"/>
		</g>
	</g>
	<g>
		<g>
			<path fill="#171617" d="M19.377,18.789c0.132,0.59,0.376,1.136,0.616,1.688c0.27,0.619,0.399,1.295,0.603,1.938
				c0.194,0.612,1.16,0.351,0.965-0.266c-0.194-0.613-0.34-1.24-0.563-1.844c-0.222-0.6-0.517-1.152-0.656-1.781
				C20.201,17.894,19.237,18.161,19.377,18.789L19.377,18.789z"/>
		</g>
	</g>
	<g>
		<g>
			<path fill="#171617" d="M17.965,14.43c0.048,0.208,0.131,0.375,0.203,0.578c0.182,0.52,0.982,0.453,0.982-0.133
				c0-0.01,0-0.021,0-0.031c-0.327,0.044-0.654,0.088-0.982,0.133c0.293,1.373,0.852,2.685,1.328,4
				c0.219,0.602,1.185,0.342,0.965-0.266c-0.478-1.315-1.036-2.628-1.328-4c-0.12-0.562-0.982-0.422-0.982,0.133
				c0,0.01,0,0.021,0,0.031c0.327-0.044,0.654-0.088,0.982-0.133c-0.066-0.188-0.157-0.383-0.203-0.578
				C18.782,13.536,17.818,13.803,17.965,14.43L17.965,14.43z"/>
		</g>
	</g>
	<g>
		<g>
			<path fill="#171617" d="M6.727,20.092c0.068,0.45,0.35,0.785,0.625,1.134c0.49,0.621,0.961,1.255,1.449,1.878
				c0.555,0.709,1.222,1.306,1.793,2c0.371,0.451,0.739,1.109,1.299,1.35c0.586,0.251,1.096-0.61,0.505-0.863
				c-0.429-0.184-0.808-0.834-1.097-1.194c-0.399-0.497-0.87-0.93-1.305-1.396c-0.504-0.539-0.939-1.165-1.356-1.772
				c-0.311-0.453-0.863-0.833-0.95-1.401C7.594,19.19,6.63,19.461,6.727,20.092L6.727,20.092z"/>
		</g>
	</g>
	<g>
		<g>
			<path fill="#171617" d="M12.211,26.412c0.19-0.047,0.378-0.102,0.568-0.148c0.626-0.155,0.36-1.119-0.266-0.965
				c-0.19,0.047-0.378,0.102-0.568,0.148C11.319,25.603,11.585,26.566,12.211,26.412L12.211,26.412z"/>
		</g>
	</g>
</g>
</svg>
